<svg xmlns="http://www.w3.org/2000/svg" version="1.1" xmlns:xlink="http://www.w3.org/1999/xlink" xmlns:svgjs="http://svgjs.dev/svgjs" viewBox="0 0 800 800"><g stroke-width="2" stroke="hsl(230, 55%, 40%)" fill="none" stroke-linecap="round"><path d="M67.69 59.58Q77.81 59.49 87.93 59.88 98.05 60.7 108.17 61.94 118.29 63.54 128.41 65.41 138.53 67.5 148.65 69.69 158.77 71.89 168.89 74.01 179.01 75.96 189.13 77.64 199.25 78.98 209.37 79.93 219.49 80.44 229.61 80.48 239.73 80.07 249.85 79.21 259.97 77.94 270.09 76.33 280.21 74.43 290.33 72.34 300.45 70.14 310.56 67.94 320.68 65.83 330.8 63.9 340.92 62.24 351.04 60.93 361.16 60.01 371.28 59.54 381.4 59.52 391.52 59.97 401.64 60.86 411.76 62.15 421.88 63.79 432 65.71 442.12 67.81 452.24 70.01 462.36 72.21 472.48 74.31 482.6 76.22 492.72 77.85 502.84 79.14 512.96 80.03 523.08 80.47 533.2 80.45 543.32 79.97 553.44 79.05 563.56 77.73 573.68 76.07 583.8 74.14 593.92 72.02 604.04 69.82 614.16 67.63 624.28 65.54 634.4 63.64 644.52 62.03 654.64 60.77 664.76 59.91 674.88 59.5 685 59.56 695.12 60.07 710.34 66.83 716.24 82.88 717.68 93.14 719.72 103.4 722.25 113.65 725.16 123.91 728.29 134.17 731.51 144.42 734.65 154.68 737.57 164.94 740.13 175.19 742.2 185.45 743.69 195.71 744.51 205.96 744.65 216.22 744.08 226.48 742.83 236.73 740.97 246.99 738.59 257.24 735.79 267.5 732.71 277.76 729.51 288.01 726.32 298.27 723.32 308.53 720.63 318.78 718.39 329.04 716.71 339.3 715.66 349.55 715.31 359.81 715.65 370.07 716.69 380.32 718.36 390.58 720.59 400.84 723.27 411.09 726.28 421.35 729.46 431.61 732.67 441.86 735.75 452.12 738.55 462.37 740.94 472.63 742.81 482.89 744.07 493.14 744.65 503.4 744.52 513.66 743.7 523.91 742.22 534.17 740.16 544.43 737.61 554.68 734.69 564.94 731.55 575.2 728.34 585.45 725.2 595.71 722.29 605.97 719.76 616.22 717.71 626.48 716.25 636.73 715.45 646.99 715.35 657.25 715.95 667.5 717.23 677.76 719.11 688.02 721.52 698.27 720.74 712.67 706.87 715.41 696.59 714.65 686.31 714.57 676.03 715.17 665.75 716.43 655.47 718.28 645.19 720.66 634.91 723.44 624.64 726.51 614.36 729.74 604.08 732.98 593.8 736.08 583.52 738.92 573.24 741.37 562.96 743.31 552.69 744.66 542.41 745.37 532.13 745.4 521.85 744.75 511.57 743.45 501.29 741.55 491.01 739.14 480.74 736.34 470.46 733.25 460.18 730.01 449.9 726.78 439.62 723.69 429.34 720.88 419.06 718.47 408.78 716.56 398.51 715.25 388.23 714.6 377.95 714.62 367.67 715.32 357.39 716.66 347.11 718.6 336.83 721.04 326.56 723.87 316.28 726.98 306 730.21 295.72 733.44 285.44 736.52 275.16 739.3 264.88 741.68 254.61 743.54 244.33 744.81 234.05 745.42 223.77 745.35 213.49 744.6 203.21 743.21 192.93 741.23 182.65 738.76 172.38 735.9 162.1 732.78 151.82 729.54 141.54 726.32 131.26 723.26 120.98 720.5 110.7 718.16 100.43 716.33 90.15 715.12 74.49 709.5 68.66 694.2 68.28 683.97 67.98 673.73 67.78 663.5 67.69 653.26 67.71 643.02 67.83 632.79 68.06 622.55 68.38 612.32 68.78 602.08 69.24 591.85 69.73 581.61 70.24 571.37 70.73 561.14 71.19 550.9 71.6 540.67 71.92 530.43 72.15 520.19 72.28 509.96 72.3 499.72 72.21 489.49 72.01 479.25 71.72 469.01 71.34 458.78 70.9 448.54 70.42 438.31 69.91 428.07 69.41 417.83 68.94 407.6 68.51 397.36 68.16 387.13 67.9 376.89 67.74 366.65 67.68 356.42 67.74 346.18 67.9 335.95 68.17 325.71 68.52 315.47 68.94 305.24 69.42 295 69.92 284.77 70.42 274.53 70.91 264.3 71.35 254.06 71.72 243.82 72.02 233.59 72.21 223.35 72.3 213.12 72.28 202.88 72.15 192.64 71.92 182.41 71.59 172.17 71.19 161.94 70.73 151.7 70.23 141.46 69.73 131.23 69.23 120.99 68.78 110.76 68.38 100.52 68.06 90.28 67.83 80.05 67.7 69.81 67.69 59.58" stroke-dasharray="0 0" transform="rotate(0, 400, 400)" opacity="0.05"></path><path d="M73.57 65.43Q83.51 65.61 93.44 66.23 103.38 67.27 113.31 68.68 123.25 70.4 133.18 72.36 143.12 74.48 153.06 76.66 162.99 78.81 172.93 80.84 182.86 82.66 192.8 84.2 202.73 85.39 212.67 86.19 222.6 86.54 232.54 86.45 242.47 85.92 252.41 84.96 262.34 83.62 272.28 81.96 282.22 80.04 292.15 77.95 302.09 75.78 312.02 73.62 321.96 71.55 331.89 69.68 341.83 68.08 351.76 66.81 361.7 65.93 371.63 65.48 381.57 65.48 391.5 65.93 401.44 66.8 411.37 68.07 421.31 69.67 431.25 71.54 441.18 73.6 451.12 75.77 461.05 77.94 470.99 80.03 480.92 81.95 490.86 83.61 500.79 84.95 510.73 85.91 520.66 86.45 530.6 86.55 540.53 86.19 550.47 85.4 560.41 84.21 570.34 82.67 580.28 80.85 590.21 78.82 600.15 76.67 610.08 74.49 620.02 72.38 629.95 70.42 639.89 68.69 649.82 67.28 659.76 66.24 669.69 65.61 679.63 65.43 689.56 65.69 704.71 71.98 711.05 87.63 712.78 97.7 715.03 107.76 717.69 117.83 720.64 127.89 723.75 137.95 726.87 148.02 729.86 158.08 732.58 168.15 734.9 178.21 736.71 188.27 737.94 198.34 738.52 208.4 738.44 218.47 737.68 228.53 736.29 238.59 734.33 248.66 731.9 258.72 729.1 268.79 726.06 278.85 722.93 288.91 719.85 298.98 716.96 309.04 714.39 319.11 712.27 329.17 710.69 339.23 709.73 349.3 709.42 359.36 709.79 369.43 710.82 379.49 712.45 389.55 714.62 399.62 717.22 409.68 720.14 419.75 723.23 429.81 726.36 439.87 729.38 449.94 732.15 460 734.54 470.07 736.45 480.13 737.78 490.2 738.47 500.26 738.5 510.32 737.85 520.39 736.56 530.45 734.69 540.52 732.33 550.58 729.58 560.64 726.58 570.71 723.45 580.77 720.35 590.84 717.42 600.9 714.79 610.96 712.59 621.03 710.91 631.09 709.84 641.16 709.42 651.22 709.68 661.28 710.6 671.35 712.14 681.41 714.23 691.48 713.17 705.76 699.5 708.95 689.43 708.57 679.36 708.84 669.3 709.75 659.23 711.27 649.16 713.33 639.09 715.85 629.02 718.71 618.95 721.8 608.89 724.98 598.82 728.12 588.75 731.08 578.68 733.74 568.61 735.99 558.54 737.73 548.48 738.88 538.41 739.4 528.34 739.26 518.27 738.48 508.2 737.07 498.14 735.12 488.07 732.68 478 729.88 467.93 726.83 457.86 723.66 447.79 720.5 437.73 717.49 427.66 714.76 417.59 712.42 407.52 710.57 397.45 709.3 387.38 708.65 377.32 708.65 367.25 709.3 357.18 710.58 347.11 712.43 337.04 714.78 326.98 717.51 316.91 720.52 306.84 723.68 296.77 726.85 286.7 729.9 276.63 732.7 266.57 735.13 256.5 737.08 246.43 738.48 236.36 739.26 226.29 739.4 216.22 738.87 206.16 737.72 196.09 735.98 186.02 733.73 175.95 731.06 165.88 728.1 155.82 724.96 145.75 721.78 135.68 718.69 125.61 715.83 115.54 713.32 105.47 711.26 95.41 709.74 80.06 703.68 74.37 688.47 74.02 678.42 73.77 668.37 73.61 658.32 73.57 648.27 73.64 638.22 73.82 628.18 74.1 618.13 74.46 608.08 74.9 598.03 75.39 587.98 75.9 577.93 76.42 567.88 76.92 557.83 77.38 547.78 77.78 537.73 78.09 527.68 78.3 517.64 78.41 507.59 78.4 497.54 78.29 487.49 78.07 477.44 77.75 467.39 77.35 457.34 76.89 447.29 76.39 437.24 75.87 427.19 75.35 417.14 74.87 407.1 74.44 397.05 74.07 387 73.8 376.95 73.63 366.9 73.57 356.85 73.62 346.8 73.78 336.75 74.04 326.7 74.4 316.65 74.82 306.6 75.3 296.56 75.82 286.51 76.34 276.46 76.84 266.41 77.31 256.36 77.72 246.31 78.04 236.26 78.27 226.21 78.4 216.16 78.41 206.11 78.32 196.07 78.11 186.02 77.81 175.97 77.42 165.92 76.97 155.87 76.47 145.82 75.95 135.77 75.44 125.72 74.95 115.67 74.5 105.62 74.13 95.57 73.84 85.53 73.65 75.48 73.57 65.43" stroke-dasharray="0 0" transform="rotate(3.4259259259259256, 400, 400)" opacity="0.07"></path><path d="M79.5 71.44Q89.25 71.87 99 72.72 108.76 73.95 118.51 75.51 128.27 77.34 138.02 79.36 147.77 81.48 157.53 83.63 167.28 85.71 177.04 87.63 186.79 89.33 196.54 90.72 206.3 91.76 216.05 92.4 225.81 92.61 235.56 92.39 245.31 91.74 255.07 90.69 264.82 89.28 274.58 87.58 284.33 85.64 294.08 83.56 303.84 81.41 313.59 79.29 323.35 77.28 333.1 75.46 342.85 73.91 352.61 72.69 362.36 71.85 372.12 71.43 381.87 71.44 391.62 71.88 401.38 72.74 411.13 73.98 420.89 75.54 430.64 77.38 440.39 79.39 450.15 81.52 459.9 83.67 469.66 85.74 479.41 87.67 489.16 89.36 498.92 90.75 508.67 91.78 518.42 92.41 528.18 92.61 537.93 92.38 547.69 91.72 557.44 90.66 567.19 89.25 576.95 87.54 586.7 85.6 596.46 83.52 606.21 81.37 615.96 79.25 625.72 77.24 635.47 75.43 645.23 73.88 654.98 72.67 664.73 71.84 674.49 71.43 684.24 71.44 699.29 77.27 706.03 92.51 708 102.38 710.42 112.25 713.18 122.12 716.14 132 719.2 141.87 722.19 151.74 725 161.62 727.5 171.49 729.58 181.36 731.14 191.23 732.11 201.11 732.46 210.98 732.16 220.85 731.23 230.72 729.71 240.6 727.67 250.47 725.2 260.34 722.4 270.21 719.42 280.09 716.36 289.96 713.38 299.83 710.61 309.71 708.16 319.58 706.16 329.45 704.68 339.32 703.79 349.2 703.54 359.07 703.93 368.94 704.94 378.81 706.54 388.69 708.65 398.56 711.17 408.43 714 418.3 717.01 428.18 720.06 438.05 723.01 447.92 725.75 457.8 728.14 467.67 730.08 477.54 731.48 487.41 732.27 497.29 732.44 507.16 731.96 517.03 730.86 526.9 729.18 536.78 727.01 546.65 724.43 556.52 721.57 566.39 718.55 576.27 715.51 586.14 712.57 596.01 709.88 605.89 707.55 615.76 705.68 625.63 704.36 635.5 703.65 645.38 703.58 655.25 704.15 665.12 705.34 674.99 707.09 684.87 705.71 699.05 692.23 702.7 682.37 702.68 672.51 703.28 662.65 704.48 652.79 706.24 642.93 708.48 633.07 711.11 623.21 714.02 613.35 717.09 603.49 720.21 593.63 723.23 583.77 726.03 573.91 728.51 564.05 730.56 554.19 732.09 544.33 733.04 534.48 733.38 524.62 733.09 514.76 732.17 504.9 730.68 495.04 728.67 485.18 726.22 475.32 723.43 465.46 720.42 455.6 717.31 445.74 714.23 435.88 711.3 426.02 708.65 416.16 706.38 406.3 704.58 396.44 703.34 386.58 702.7 376.72 702.68 366.86 703.29 357 704.51 347.14 706.28 337.28 708.52 327.42 711.16 317.56 714.08 307.7 717.15 297.85 720.26 287.99 723.28 278.13 726.08 268.27 728.55 258.41 730.59 248.55 732.11 238.69 733.05 228.83 733.38 218.97 733.07 209.11 732.15 199.25 730.65 189.39 728.62 179.53 726.17 169.67 723.37 159.81 720.36 149.95 717.25 140.09 714.17 130.23 711.25 120.37 708.6 110.51 706.34 100.65 704.55 85.63 698.07 80.08 682.96 79.77 673.1 79.57 663.24 79.47 653.37 79.48 643.51 79.6 633.65 79.83 623.78 80.16 613.92 80.57 604.06 81.04 594.19 81.56 584.33 82.09 574.47 82.62 564.6 83.12 554.74 83.58 544.88 83.96 535.01 84.25 525.15 84.44 515.29 84.53 505.42 84.5 495.56 84.36 485.7 84.11 475.83 83.77 465.97 83.36 456.11 82.88 446.24 82.36 436.38 81.82 426.52 81.29 416.65 80.8 406.79 80.36 396.93 79.99 387.06 79.7 377.2 79.53 367.34 79.46 357.47 79.5 347.61 79.66 337.75 79.92 327.88 80.27 318.02 80.7 308.16 81.19 298.29 81.71 288.43 82.24 278.57 82.77 268.7 83.26 258.84 83.69 248.98 84.05 239.11 84.32 229.25 84.48 219.39 84.53 209.52 84.47 199.66 84.3 189.8 84.03 179.93 83.66 170.07 83.22 160.21 82.73 150.34 82.21 140.48 81.67 130.62 81.15 120.75 80.67 110.89 80.24 101.03 79.9 91.16 79.64 81.3 79.5 71.44" stroke-dasharray="0 0" transform="rotate(6.851851851851851, 400, 400)" opacity="0.09"></path><path d="M85.46 77.6Q95.04 78.28 104.62 79.34 114.19 80.74 123.77 82.43 133.34 84.33 142.92 86.38 152.49 88.5 162.07 90.59 171.64 92.59 181.22 94.4 190.79 95.95 200.37 97.2 209.95 98.08 219.52 98.56 229.1 98.63 238.67 98.28 248.25 97.52 257.82 96.38 267.4 94.92 276.97 93.18 286.55 91.23 296.12 89.16 305.7 87.04 315.28 84.96 324.85 83 334.43 81.24 344 79.74 353.58 78.57 363.15 77.77 372.73 77.38 382.3 77.4 391.88 77.84 401.45 78.68 411.03 79.89 420.6 81.42 430.18 83.21 439.76 85.19 449.33 87.27 458.91 89.39 468.48 91.45 478.06 93.38 487.63 95.09 497.21 96.52 506.78 97.62 516.36 98.34 525.93 98.64 535.51 98.53 545.09 98 554.66 97.08 564.24 95.8 573.81 94.21 583.39 92.38 592.96 90.37 602.54 88.27 612.11 86.16 621.69 84.12 631.26 82.23 640.84 80.57 650.42 79.21 659.99 78.19 669.57 77.55 679.14 77.34 694.09 82.68 701.17 97.51 703.35 107.2 705.89 116.88 708.7 126.56 711.64 136.24 714.6 145.93 717.45 155.61 720.07 165.29 722.34 174.97 724.17 184.66 725.47 194.34 726.2 204.02 726.32 213.7 725.82 223.39 724.73 233.07 723.09 242.75 720.98 252.43 718.49 262.12 715.71 271.8 712.78 281.48 709.81 291.16 706.93 300.85 704.28 310.53 701.95 320.21 700.06 329.89 698.67 339.58 697.86 349.26 697.65 358.94 698.06 368.62 699.07 378.31 700.63 387.99 702.68 397.67 705.12 407.35 707.87 417.04 710.79 426.72 713.76 436.4 716.65 446.08 719.35 455.77 721.73 465.45 723.69 475.13 725.15 484.81 726.05 494.5 726.34 504.18 726.02 513.86 725.1 523.54 723.62 533.23 721.63 542.91 719.24 552.59 716.53 562.27 713.63 571.96 710.66 581.64 707.75 591.32 705.01 601 702.58 610.68 700.55 620.37 699.01 630.05 698.03 639.73 697.65 649.41 697.88 659.1 698.72 668.78 700.13 678.46 698.39 692.54 685.08 696.66 675.43 696.97 665.77 697.88 656.12 699.35 646.47 701.31 636.81 703.7 627.16 706.41 617.51 709.35 607.85 712.39 598.2 715.41 588.55 718.3 578.89 720.94 569.24 723.23 559.59 725.07 549.94 726.4 540.28 727.16 530.63 727.32 520.98 726.87 511.32 725.84 501.67 724.27 492.02 722.21 482.36 719.74 472.71 716.97 463.06 714 453.41 710.96 443.75 707.95 434.1 705.11 424.45 702.53 414.79 700.33 405.14 698.59 395.49 697.38 385.83 696.75 376.18 696.72 366.53 697.29 356.87 698.44 347.22 700.12 337.57 702.28 327.92 704.81 318.26 707.63 308.61 710.63 298.96 713.67 289.3 716.66 279.65 719.45 270 721.96 260.34 724.06 250.69 725.7 241.04 726.79 231.39 727.3 221.73 727.2 212.08 726.51 202.43 725.24 192.77 723.45 183.12 721.21 173.47 718.6 163.81 715.73 154.16 712.72 144.51 709.68 134.85 706.72 125.2 703.98 115.55 701.55 105.9 699.54 91.2 692.69 85.8 677.68 85.54 668.01 85.39 658.33 85.35 648.65 85.42 638.97 85.6 629.29 85.88 619.61 86.26 609.93 86.71 600.25 87.21 590.58 87.75 580.9 88.3 571.22 88.83 561.54 89.33 551.86 89.78 542.18 90.14 532.5 90.42 522.83 90.59 513.15 90.64 503.47 90.59 493.79 90.42 484.11 90.15 474.43 89.79 464.75 89.35 455.07 88.86 445.4 88.32 435.72 87.77 426.04 87.23 416.36 86.73 406.68 86.27 397 85.9 387.32 85.61 377.64 85.42 367.97 85.35 358.29 85.38 348.61 85.53 338.93 85.79 329.25 86.14 319.57 86.57 309.89 87.06 300.21 87.59 290.54 88.14 280.86 88.68 271.18 89.19 261.5 89.65 251.82 90.04 242.14 90.35 232.46 90.55 222.78 90.64 213.11 90.62 203.43 90.48 193.75 90.24 184.07 89.91 174.39 89.49 164.71 89 155.03 88.48 145.36 87.93 135.68 87.39 126 86.87 116.32 86.4 106.64 86 96.96 85.68 87.28 85.46 77.6" stroke-dasharray="0 0" transform="rotate(10.277777777777777, 400, 400)" opacity="0.10"></path><path d="M91.48 83.93Q100.88 84.83 110.28 86.07 119.68 87.62 129.08 89.41 138.48 91.37 147.88 93.44 157.28 95.52 166.68 97.54 176.08 99.44 185.48 101.12 194.88 102.53 204.28 103.62 213.68 104.35 223.08 104.68 232.48 104.61 241.87 104.13 251.27 103.27 260.67 102.05 270.07 100.53 279.47 98.76 288.87 96.82 298.27 94.76 307.67 92.67 317.07 90.64 326.47 88.73 335.87 87.02 345.27 85.58 354.67 84.46 364.07 83.7 373.47 83.33 382.87 83.36 392.27 83.8 401.67 84.62 411.06 85.8 420.46 87.3 429.86 89.04 439.26 90.98 448.66 93.03 458.06 95.11 467.46 97.16 476.86 99.08 486.26 100.81 495.66 102.28 505.06 103.44 514.46 104.24 523.86 104.65 533.26 104.65 542.66 104.25 552.06 103.46 561.46 102.32 570.86 100.85 580.26 99.13 589.65 97.21 599.05 95.17 608.45 93.08 617.85 91.03 627.25 89.09 636.65 87.34 646.05 85.84 655.45 84.65 664.85 83.81 674.25 83.37 689.08 88.25 696.45 102.67 698.78 112.16 701.41 121.65 704.23 131.15 707.12 140.64 709.97 150.13 712.65 159.63 715.05 169.12 717.09 178.61 718.66 188.11 719.71 197.6 720.2 207.09 720.1 216.59 719.42 226.08 718.19 235.58 716.45 245.07 714.28 254.56 711.77 264.06 709.02 273.55 706.15 283.04 703.27 292.54 700.5 302.03 697.96 311.52 695.75 321.02 693.96 330.51 692.67 340 691.93 349.5 691.77 358.99 692.2 368.48 693.19 377.98 694.72 387.47 696.71 396.96 699.08 406.46 701.74 415.95 704.57 425.44 707.46 434.94 710.29 444.43 712.95 453.92 715.31 463.42 717.3 472.91 718.81 482.4 719.8 491.9 720.22 501.39 720.05 510.88 719.3 520.38 718.01 529.87 716.21 539.36 714 548.86 711.45 558.35 708.68 567.84 705.8 577.34 702.93 586.83 700.19 596.32 697.68 605.82 695.52 615.31 693.78 624.8 692.56 634.3 691.88 643.79 691.79 653.28 692.29 662.78 693.35 672.27 691.23 686.25 678.07 690.81 668.62 691.45 659.17 692.64 649.72 694.34 640.28 696.49 630.83 698.99 621.38 701.76 611.93 704.69 602.48 707.67 593.03 710.59 583.58 713.33 574.13 715.79 564.69 717.88 555.24 719.52 545.79 720.65 536.34 721.22 526.89 721.21 517.44 720.63 507.99 719.49 498.54 717.83 489.09 715.73 479.65 713.26 470.2 710.51 460.75 707.59 451.3 704.61 441.85 701.68 432.4 698.92 422.95 696.42 413.5 694.29 404.06 692.61 394.61 691.43 385.16 690.8 375.71 690.75 366.26 691.28 356.81 692.37 347.36 693.97 337.91 696.03 328.46 698.47 319.02 701.2 309.57 704.11 300.12 707.09 290.67 710.02 281.22 712.81 271.77 715.34 262.32 717.51 252.87 719.24 243.42 720.47 233.98 721.15 224.53 721.26 215.08 720.79 205.63 719.75 196.18 718.2 186.73 716.18 177.28 713.77 167.83 711.07 158.39 708.17 148.94 705.2 139.49 702.25 130.04 699.44 120.59 696.89 111.14 694.68 96.77 687.51 91.54 672.62 91.34 663.13 91.24 653.63 91.26 644.14 91.39 634.64 91.63 625.15 91.96 615.65 92.38 606.16 92.87 596.66 93.4 587.17 93.96 577.67 94.52 568.18 95.05 558.68 95.55 549.19 95.98 539.69 96.33 530.2 96.58 520.7 96.72 511.21 96.75 501.71 96.67 492.22 96.48 482.72 96.19 473.23 95.8 463.73 95.34 454.24 94.83 444.74 94.28 435.25 93.72 425.75 93.17 416.26 92.65 406.76 92.19 397.27 91.81 387.77 91.51 378.28 91.32 368.78 91.24 359.29 91.27 349.79 91.41 340.3 91.66 330.8 92.01 321.31 92.44 311.81 92.93 302.32 93.47 292.82 94.02 283.33 94.58 273.83 95.12 264.34 95.6 254.84 96.02 245.35 96.36 235.85 96.6 226.36 96.73 216.86 96.75 207.37 96.66 197.87 96.45 188.38 96.15 178.88 95.75 169.39 95.29 159.89 94.77 150.4 94.21 140.9 93.65 131.41 93.11 121.91 92.6 112.42 92.14 102.92 91.77 93.43 91.48 83.93" stroke-dasharray="0 0" transform="rotate(13.703703703703702, 400, 400)" opacity="0.12"></path><path d="M97.55 90.41Q106.78 91.51 116.01 92.92 125.23 94.59 134.46 96.46 143.68 98.45 152.91 100.5 162.13 102.53 171.36 104.47 180.59 106.25 189.81 107.8 199.04 109.06 208.26 110 217.49 110.56 226.72 110.74 235.94 110.53 245.17 109.94 254.39 108.98 263.62 107.7 272.84 106.13 282.07 104.34 291.3 102.39 300.52 100.35 309.75 98.3 318.97 96.31 328.2 94.46 337.42 92.81 346.65 91.42 355.88 90.34 365.1 89.62 374.33 89.27 383.55 89.32 392.78 89.76 402 90.56 411.23 91.72 420.46 93.17 429.68 94.88 438.91 96.77 448.13 98.78 457.36 100.83 466.59 102.85 475.81 104.77 485.04 106.52 494.26 108.02 503.49 109.24 512.71 110.11 521.94 110.62 531.17 110.74 540.39 110.46 549.62 109.81 558.84 108.8 568.07 107.46 577.29 105.86 586.52 104.03 595.75 102.07 604.97 100.02 614.2 97.98 623.42 96.01 632.65 94.18 641.88 92.57 651.1 91.23 660.33 90.2 669.55 89.54 684.25 93.96 691.85 107.97 694.29 117.28 696.97 126.59 699.76 135.89 702.56 145.2 705.26 154.5 707.76 163.81 709.94 173.11 711.73 182.42 713.06 191.72 713.86 201.03 714.12 210.33 713.82 219.64 712.96 228.95 711.6 238.25 709.77 247.56 707.56 256.86 705.05 266.17 702.33 275.47 699.52 284.78 696.74 294.08 694.08 303.39 691.65 312.69 689.56 322 687.88 331.31 686.68 340.61 686.01 349.92 685.89 359.22 686.34 368.53 687.32 377.83 688.81 387.14 690.74 396.44 693.04 405.75 695.61 415.05 698.36 424.36 701.17 433.67 703.93 442.97 706.54 452.28 708.89 461.58 710.89 470.89 712.46 480.19 713.53 489.5 714.06 498.8 714.04 508.11 713.46 517.41 712.34 526.72 710.74 536.03 708.71 545.33 706.33 554.64 703.71 563.94 700.93 573.25 698.12 582.55 695.38 591.86 692.83 601.16 690.56 610.47 688.66 619.77 687.22 629.08 686.28 638.39 685.88 647.69 686.05 657 686.76 666.3 684.24 680.18 671.23 685.16 661.98 686.1 652.73 687.55 643.49 689.46 634.24 691.75 624.99 694.34 615.74 697.13 606.5 700.03 597.25 702.93 588 705.73 578.76 708.31 569.51 710.59 560.26 712.48 551.01 713.92 541.77 714.85 532.52 715.23 523.27 715.07 514.03 714.35 504.78 713.1 495.53 711.38 486.28 709.25 477.04 706.77 467.79 704.05 458.54 701.18 449.3 698.27 440.05 695.42 430.8 692.73 421.55 690.32 412.31 688.25 403.06 686.62 393.81 685.47 384.57 684.85 375.32 684.79 366.07 685.28 356.82 686.3 347.58 687.83 338.33 689.8 329.08 692.14 319.84 694.77 310.59 697.59 301.34 700.5 292.09 703.39 282.85 706.16 273.6 708.7 264.35 710.92 255.11 712.74 245.86 714.1 236.61 714.95 227.36 715.24 218.12 714.99 208.87 714.18 199.62 712.86 190.38 711.07 181.13 708.87 171.88 706.35 162.63 703.6 153.39 700.71 144.14 697.8 134.89 694.97 125.65 692.33 116.4 689.96 102.35 682.52 97.3 667.77 97.16 658.46 97.12 649.15 97.2 639.84 97.39 630.52 97.69 621.21 98.07 611.9 98.54 602.59 99.06 593.28 99.61 583.96 100.19 574.65 100.75 565.34 101.29 556.03 101.77 546.71 102.18 537.4 102.51 528.09 102.74 518.78 102.85 509.46 102.86 500.15 102.75 490.84 102.53 481.53 102.21 472.22 101.81 462.9 101.33 453.59 100.8 444.28 100.23 434.97 99.66 425.65 99.1 416.34 98.58 407.03 98.11 397.72 97.72 388.4 97.42 379.09 97.21 369.78 97.12 360.47 97.15 351.16 97.29 341.84 97.53 332.53 97.87 323.22 98.3 313.91 98.79 304.59 99.33 295.28 99.9 285.97 100.47 276.66 101.02 267.34 101.53 258.03 101.99 248.72 102.36 239.41 102.63 230.1 102.81 220.78 102.87 211.47 102.82 202.16 102.65 192.85 102.38 183.53 102.02 174.22 101.57 164.91 101.07 155.6 100.52 146.28 99.95 136.97 99.38 127.66 98.83 118.35 98.34 109.04 97.9 99.72 97.55 90.41" stroke-dasharray="0 0" transform="rotate(17.12962962962963, 400, 400)" opacity="0.14"></path><path d="M103.68 97.04Q112.73 98.32 121.79 99.87 130.84 101.63 139.9 103.55 148.95 105.55 158 107.57 167.06 109.54 176.11 111.37 185.17 113.02 194.22 114.43 203.27 115.54 212.33 116.31 221.38 116.72 230.44 116.76 239.49 116.42 248.55 115.71 257.6 114.66 266.65 113.31 275.71 111.71 284.76 109.9 293.82 107.95 302.87 105.94 311.92 103.93 320.98 101.99 330.03 100.19 339.09 98.6 348.14 97.26 357.19 96.23 366.25 95.54 375.3 95.22 384.36 95.28 393.41 95.71 402.46 96.5 411.52 97.63 420.57 99.05 429.63 100.71 438.68 102.56 447.73 104.53 456.79 106.55 465.84 108.55 474.9 110.46 483.95 112.21 493 113.75 502.06 115.01 511.11 115.96 520.17 116.56 529.22 116.79 538.27 116.64 547.33 116.12 556.38 115.24 565.44 114.04 574.49 112.55 583.54 110.84 592.6 108.96 601.65 106.97 610.71 104.95 619.76 102.97 628.81 101.09 637.87 99.38 646.92 97.91 655.98 96.72 665.03 95.85 679.58 99.83 687.33 113.44 689.86 122.56 692.54 131.68 695.27 140.8 697.96 149.92 700.49 159.03 702.78 168.15 704.73 177.27 706.28 186.39 707.35 195.51 707.92 204.63 707.96 213.75 707.46 222.86 706.46 231.98 704.97 241.1 703.07 250.22 700.83 259.34 698.32 268.46 695.65 277.58 692.91 286.69 690.22 295.81 687.67 304.93 685.36 314.05 683.38 323.17 681.81 332.29 680.7 341.41 680.09 350.52 680.02 359.64 680.47 368.76 681.45 377.88 682.9 387 684.77 396.12 686.99 405.24 689.48 414.36 692.15 423.47 694.88 432.59 697.58 441.71 700.14 450.83 702.47 459.95 704.48 469.07 706.08 478.19 707.23 487.3 707.87 496.42 707.99 505.54 707.57 514.66 706.63 523.78 705.21 532.9 703.37 542.02 701.16 551.13 698.69 560.25 696.04 569.37 693.3 578.49 690.6 587.61 688.02 596.73 685.67 605.85 683.64 614.96 682.01 624.08 680.83 633.2 680.15 642.32 680 651.44 680.38 660.56 677.45 674.33 664.57 679.71 655.52 680.93 646.47 682.6 637.42 684.68 628.37 687.08 619.33 689.73 610.28 692.52 601.23 695.37 592.18 698.17 583.13 700.82 574.08 703.23 565.04 705.32 555.99 707.02 546.94 708.25 537.89 708.99 528.84 709.2 519.8 708.87 510.75 708.03 501.7 706.69 492.65 704.91 483.6 702.75 474.55 700.28 465.51 697.59 456.46 694.77 447.41 691.93 438.36 689.15 429.31 686.55 420.27 684.21 411.22 682.21 402.17 680.63 393.12 679.51 384.07 678.9 375.02 678.82 365.98 679.27 356.93 680.24 347.88 681.69 338.83 683.57 329.78 685.82 320.74 688.35 311.69 691.08 302.64 693.92 293.59 696.75 284.54 699.49 275.49 702.04 266.45 704.3 257.4 706.21 248.35 707.68 239.3 708.68 230.25 709.16 221.21 709.11 212.16 708.52 203.11 707.43 194.06 705.87 185.01 703.9 175.96 701.57 166.92 698.98 157.87 696.22 148.82 693.37 139.77 690.55 130.72 687.85 121.68 685.37 107.96 677.72 103.09 663.12 103.01 653.99 103.04 644.86 103.19 635.73 103.44 626.6 103.79 617.47 104.22 608.34 104.72 599.21 105.27 590.08 105.85 580.95 106.43 571.82 107 562.69 107.52 553.56 107.99 544.43 108.39 535.3 108.69 526.17 108.89 517.04 108.98 507.91 108.95 498.77 108.82 489.64 108.57 480.51 108.23 471.38 107.8 462.25 107.31 453.12 106.76 443.99 106.18 434.86 105.6 425.73 105.03 416.6 104.5 407.47 104.03 398.34 103.63 389.21 103.32 380.08 103.11 370.95 103.01 361.82 103.03 352.69 103.16 343.56 103.4 334.43 103.73 325.3 104.15 316.17 104.65 307.04 105.19 297.91 105.76 288.78 106.35 279.65 106.92 270.52 107.45 261.39 107.93 252.26 108.34 243.13 108.65 233.99 108.87 224.86 108.97 215.73 108.96 206.6 108.84 197.47 108.61 188.34 108.28 179.21 107.87 170.08 107.38 160.95 106.84 151.82 106.27 142.69 105.68 133.56 105.11 124.43 104.58 115.3 104.09 106.17 103.68 97.04" stroke-dasharray="0 0" transform="rotate(20.555555555555554, 400, 400)" opacity="0.16"></path><path d="M109.86 103.81Q118.75 105.24 127.63 106.91 136.51 108.74 145.4 110.68 154.28 112.67 163.17 114.64 172.05 116.51 180.93 118.24 189.82 119.75 198.7 121 207.59 121.95 216.47 122.57 225.35 122.83 234.24 122.72 243.12 122.26 252.01 121.44 260.89 120.32 269.77 118.91 278.66 117.26 287.54 115.45 296.42 113.51 305.31 111.53 314.19 109.56 323.08 107.67 331.96 105.92 340.84 104.39 349.73 103.1 358.61 102.12 367.5 101.47 376.38 101.17 385.26 101.24 394.15 101.67 403.03 102.45 411.92 103.54 420.8 104.93 429.68 106.54 438.57 108.35 447.45 110.27 456.34 112.26 465.22 114.23 474.1 116.13 482.99 117.89 491.87 119.45 500.75 120.77 509.64 121.78 518.52 122.47 527.41 122.8 536.29 122.77 545.17 122.38 554.06 121.64 562.94 120.58 571.83 119.22 580.71 117.62 589.59 115.84 598.48 113.92 607.36 111.94 616.25 109.96 625.13 108.05 634.01 106.27 642.9 104.69 651.78 103.35 660.67 102.3 675.04 105.86 682.9 119.07 685.45 128 688.1 136.94 690.74 145.87 693.28 154.8 695.63 163.73 697.7 172.67 699.42 181.6 700.72 190.53 701.55 199.47 701.89 208.4 701.72 217.33 701.05 226.26 699.9 235.2 698.31 244.13 696.35 253.06 694.08 262 691.59 270.93 688.97 279.86 686.32 288.79 683.72 297.73 681.28 306.66 679.09 315.59 677.22 324.53 675.75 333.46 674.72 342.39 674.18 351.32 674.14 360.26 674.61 369.19 675.57 378.12 676.99 387.06 678.8 395.99 680.95 404.92 683.36 413.85 685.94 422.79 688.6 431.72 691.23 440.65 693.74 449.58 696.05 458.52 698.06 467.45 699.7 476.38 700.91 485.32 701.65 494.25 701.89 503.18 701.63 512.11 700.86 521.05 699.63 529.98 697.97 538.91 695.95 547.85 693.63 556.78 691.11 565.71 688.47 574.64 685.82 583.58 683.25 592.51 680.85 601.44 678.71 610.38 676.91 619.31 675.52 628.24 674.58 637.17 674.13 646.11 674.19 655.04 670.85 668.7 658.1 674.44 649.25 675.9 640.4 677.78 631.54 679.99 622.69 682.48 613.84 685.15 604.99 687.92 596.14 690.69 587.28 693.37 578.43 695.87 569.58 698.1 560.73 699.99 551.88 701.48 543.02 702.52 534.17 703.07 525.32 703.11 516.47 702.64 507.62 701.68 498.76 700.26 489.91 698.43 481.06 696.24 472.21 693.78 463.36 691.12 454.5 688.36 445.65 685.59 436.8 682.89 427.95 680.37 419.1 678.11 410.24 676.17 401.39 674.64 392.54 673.55 383.69 672.95 374.84 672.86 365.98 673.28 357.13 674.19 348.28 675.56 339.43 677.35 330.58 679.51 321.72 681.94 312.87 684.58 304.02 687.34 295.17 690.12 286.32 692.82 277.46 695.36 268.61 697.66 259.76 699.63 250.91 701.21 242.06 702.34 233.2 703 224.35 703.14 215.5 702.78 206.65 701.92 197.8 700.59 188.94 698.84 180.09 696.72 171.24 694.31 162.39 691.69 153.54 688.94 144.68 686.16 135.83 683.44 126.98 680.88 113.59 673.08 108.92 658.65 108.9 649.7 109 640.75 109.21 631.8 109.52 622.85 109.92 613.9 110.4 604.95 110.94 596.01 111.51 587.06 112.1 578.11 112.69 569.16 113.25 560.21 113.77 551.26 114.22 542.31 114.59 533.36 114.87 524.41 115.04 515.46 115.09 506.52 115.04 497.57 114.88 488.62 114.6 479.67 114.24 470.72 113.79 461.77 113.28 452.82 112.72 443.87 112.13 434.92 111.54 425.97 110.96 417.03 110.42 408.08 109.94 399.13 109.54 390.18 109.22 381.23 109.01 372.28 108.91 363.33 108.91 354.38 109.03 345.43 109.26 336.48 109.59 327.53 110.01 318.59 110.5 309.64 111.04 300.69 111.62 291.74 112.21 282.79 112.8 273.84 113.35 264.89 113.86 255.94 114.3 246.99 114.65 238.04 114.91 229.1 115.06 220.15 115.09 211.2 115.02 202.25 114.83 193.3 114.54 184.35 114.16 175.4 113.7 166.45 113.17 157.5 112.61 148.55 112.02 139.61 111.43 130.66 110.86 121.71 110.33 112.76 109.86 103.81" stroke-dasharray="0 0" transform="rotate(23.98148148148148, 400, 400)" opacity="0.17"></path><path d="M116.1 110.71Q124.81 112.27 133.53 114.02 142.24 115.9 150.96 117.84 159.68 119.79 168.39 121.68 177.11 123.46 185.82 125.05 194.54 126.42 203.25 127.52 220.68 128.59 238.11 128.63 246.83 128.05 255.54 127.14 264.26 125.94 272.97 124.48 281.69 122.81 290.4 120.98 299.12 119.06 307.83 117.11 316.55 115.18 325.26 113.35 333.98 111.66 342.69 110.18 360.12 108.17 377.55 107.12 394.98 107.79 412.41 109.46 421.13 110.8 429.84 112.38 438.56 114.14 447.27 116.02 455.99 117.97 464.7 119.91 473.42 121.8 482.13 123.56 490.85 125.15 499.56 126.5 516.99 128.18 534.42 128.87 551.85 127.84 569.28 125.85 578 124.38 586.71 122.69 595.43 120.86 604.14 118.94 612.86 116.98 621.57 115.06 630.29 113.23 639 111.56 647.72 110.09 656.43 108.88 670.61 112.04 678.5 124.87 681.05 133.61 683.63 142.36 686.16 151.11 688.53 159.86 690.68 168.61 692.52 177.35 694 186.1 695.05 194.85 695.53 212.35 694.57 229.84 693.29 238.59 691.62 247.34 689.61 256.09 687.33 264.83 684.87 273.58 682.31 282.33 679.73 291.08 677.24 299.83 674.91 308.57 672.83 317.32 671.07 326.07 669.69 334.82 668.75 343.57 668.27 352.31 668.27 361.06 668.75 369.81 669.7 378.56 671.07 387.3 672.84 396.05 674.92 404.8 677.25 413.55 679.74 422.3 682.32 431.04 684.88 439.79 687.34 448.54 689.62 457.29 691.63 466.04 693.3 474.78 694.57 483.53 695.4 492.28 695.77 501.03 695.65 509.78 695.05 518.52 693.99 527.27 692.52 536.02 690.67 544.77 688.52 553.52 686.14 562.26 683.62 571.01 681.04 579.76 678.49 588.51 676.07 597.26 673.85 606 671.92 614.75 670.34 623.5 669.17 632.25 668.45 649.74 669.16 667.24 660.5 668.07 651.84 669.34 643.18 671.02 634.52 673.06 625.86 675.38 617.21 677.92 608.55 680.59 599.89 683.31 591.23 685.98 582.57 688.52 573.91 690.85 565.25 692.9 547.94 695.66 530.62 697.09 513.3 696.14 495.98 693.8 487.33 691.93 478.67 689.73 470.01 687.28 461.35 684.66 452.69 681.96 444.03 679.25 435.37 676.64 426.72 674.2 418.06 672.01 409.4 670.14 392.08 667.83 374.76 666.9 357.45 668.36 340.13 671.14 331.47 673.2 322.81 675.54 314.15 678.09 305.49 680.76 296.84 683.48 288.18 686.14 279.52 688.68 270.86 690.99 262.2 693.02 253.54 694.69 236.23 696.53 218.91 696.95 210.25 696.31 201.59 695.22 192.93 693.69 184.27 691.79 175.61 689.58 166.96 687.12 158.3 684.49 149.64 681.78 140.98 679.08 132.32 676.48 119.25 668.58 114.78 654.34 114.84 645.57 115.01 636.8 115.28 628.04 115.65 619.27 116.1 610.5 116.61 601.73 117.18 592.96 117.77 584.19 118.37 575.43 118.96 566.66 119.52 557.89 120.02 549.12 120.45 540.35 120.79 531.58 121.04 522.82 121.18 514.05 121.2 505.28 121.12 496.51 120.93 487.74 120.63 478.98 120.24 470.21 119.77 461.44 119.24 452.67 118.67 443.9 118.07 435.13 117.47 426.37 116.89 417.6 116.35 408.83 115.86 400.06 115.45 391.29 115.13 382.52 114.91 373.76 114.8 364.99 114.8 356.22 114.91 347.45 115.13 338.68 115.45 329.91 115.86 321.15 116.34 312.38 116.89 303.61 117.47 294.84 118.07 286.07 118.66 277.31 119.24 268.54 119.77 259.77 120.24 251 120.63 242.23 120.92 233.46 121.12 224.7 121.2 215.93 121.18 207.16 121.04 198.39 120.79 189.62 120.45 180.85 120.02 172.09 119.52 163.32 118.96 154.55 118.38 145.78 117.78 137.01 117.18 128.24 116.62 119.48 116.1 110.71" stroke-dasharray="0 0" transform="rotate(27.407407407407405, 400, 400)" opacity="0.19"></path><path d="M122.39 117.72Q139.49 121.2 156.58 125.01 173.67 128.7 190.77 131.81 207.86 133.97 224.96 134.9 242.05 134.49 259.14 132.8 276.24 130.02 293.33 126.51 310.43 122.69 327.52 119.03 344.61 115.97 361.71 113.91 378.8 113.07 395.9 113.58 412.99 115.37 430.08 118.21 447.18 121.77 464.27 125.59 481.37 129.22 498.46 132.21 515.55 134.19 532.65 134.92 549.74 134.31 566.84 132.44 583.93 129.53 601.02 125.94 618.12 122.11 635.21 118.51 652.31 115.59 669.4 113.7 674.14 130.82 679.12 147.95 683.69 165.08 687.23 182.21 689.28 199.34 689.56 216.46 688.03 233.59 684.9 250.72 680.58 267.85 675.65 284.98 670.77 302.1 666.58 319.23 663.65 336.36 662.36 353.49 662.89 370.62 665.16 387.74 668.88 404.87 673.55 422 678.54 439.13 683.19 456.26 686.88 473.39 689.13 490.51 689.62 507.64 688.3 524.77 685.34 541.9 681.14 559.03 676.25 576.15 671.32 593.28 667.02 610.41 663.92 627.54 662.42 644.67 662.73 661.79 645.79 664.4 628.86 668.44 611.92 673.39 594.99 678.67 578.05 683.62 561.11 687.64 544.18 690.22 527.24 691.06 510.3 690.06 493.37 687.32 476.43 683.2 459.5 678.2 442.56 672.92 425.62 668.02 408.69 664.1 391.75 661.64 374.81 660.94 357.88 662.08 340.94 664.94 324.01 669.14 307.07 674.19 290.13 679.46 273.2 684.31 256.26 688.13 239.32 690.47 222.39 691.03 205.45 689.75 188.52 686.78 171.58 682.48 154.64 677.4 137.71 672.14 120.77 667.35 120.69 650.17 121.06 633 121.81 615.82 122.86 598.65 124.06 581.47 125.25 564.3 126.27 547.12 126.99 529.94 127.31 512.77 127.19 495.59 126.64 478.42 125.74 461.24 124.61 444.06 123.4 426.89 122.27 409.71 121.36 392.54 120.81 375.36 120.68 358.19 120.99 341.01 121.71 323.83 122.72 306.66 123.91 289.48 125.11 272.31 126.16 255.13 126.92 237.96 127.29 220.78 127.23 203.6 126.73 186.43 125.87 169.25 124.76 152.08 123.54 134.9 122.39 117.72" stroke-dasharray="0 0" transform="rotate(30.833333333333332, 400, 400)" opacity="0.21"></path><path d="M128.73 124.84Q145.49 128.42 162.25 132.18 179.01 135.68 195.77 138.52 212.53 140.35 229.29 140.97 246.05 140.3 262.81 138.42 279.56 135.55 296.32 132.03 313.08 128.27 329.84 124.71 346.6 121.77 363.36 119.8 380.12 119.03 396.88 119.54 413.64 121.28 430.39 124.05 447.15 127.51 463.91 131.27 480.67 134.87 497.43 137.9 514.19 140.01 530.95 140.94 547.71 140.58 564.47 138.98 581.22 136.33 597.98 132.93 614.74 129.18 631.5 125.54 648.26 122.41 665.02 120.18 669.77 136.94 674.55 153.7 678.75 170.46 681.83 187.23 683.4 203.99 683.27 220.75 681.44 237.51 678.15 254.27 673.82 271.04 669 287.8 664.31 304.56 660.35 321.32 657.61 338.08 656.46 354.84 657.03 371.61 659.25 388.37 662.85 405.13 667.35 421.89 672.2 438.65 676.76 455.41 680.46 472.18 682.82 488.94 683.55 505.7 682.55 522.46 679.95 539.22 676.08 555.99 671.43 572.75 666.6 589.51 662.21 606.27 658.8 623.03 656.82 639.79 656.53 656.56 639.97 659.61 623.41 663.89 606.84 668.89 590.28 674.01 573.72 678.66 557.16 682.3 540.6 684.49 524.04 684.98 507.48 683.7 490.92 680.82 474.36 676.67 457.8 671.73 441.24 666.59 424.68 661.85 408.12 658.07 391.55 655.68 374.99 654.98 358.43 656.04 341.87 658.74 325.31 662.76 308.75 667.63 292.19 672.78 275.63 677.6 259.07 681.53 242.51 684.1 225.95 685.02 209.39 684.17 192.82 681.66 176.26 677.78 159.7 672.98 143.14 667.84 126.58 662.94 126.66 646.13 127.16 629.31 128.02 612.5 129.14 595.68 130.36 578.87 131.54 562.05 132.52 545.23 133.18 528.42 133.43 511.6 133.25 494.79 132.65 477.97 131.71 461.16 130.55 444.34 129.33 427.52 128.18 410.71 127.27 393.89 126.71 377.08 126.56 360.26 126.86 343.45 127.55 326.63 128.56 309.82 129.74 293 130.96 276.18 132.06 259.37 132.89 242.55 133.36 225.74 133.39 208.92 132.99 192.11 132.21 175.29 131.15 158.48 129.94 141.66 128.73 124.84" stroke-dasharray="0 0" transform="rotate(34.25925925925926, 400, 400)" opacity="0.23"></path><path d="M135.12 132.05Q151.55 135.67 167.97 139.33 184.4 142.61 200.82 145.15 217.24 146.66 233.67 146.98 250.09 146.06 266.52 144.01 282.94 141.06 299.36 137.54 315.79 133.84 332.21 130.39 348.64 127.57 365.06 125.7 381.48 124.98 397.91 125.5 414.33 127.2 430.76 129.88 447.18 133.25 463.61 136.94 480.03 140.51 496.45 143.58 512.88 145.79 529.3 146.91 545.73 146.8 562.15 145.47 578.57 143.09 595 139.9 611.42 136.28 627.85 132.62 644.27 129.34 660.69 126.81 665.38 143.21 669.9 159.61 673.69 176.01 676.31 192.4 677.42 208.8 676.89 225.2 674.79 241.59 671.38 257.99 667.06 274.39 662.37 290.78 657.88 307.18 654.13 323.58 651.59 339.97 650.56 356.37 651.17 372.77 653.34 389.16 656.82 405.56 661.16 421.96 665.86 438.36 670.33 454.75 674.02 471.15 676.49 487.55 677.44 503.94 676.75 520.34 674.5 536.74 670.97 553.13 666.59 569.53 661.89 585.93 657.45 602.32 653.81 618.72 651.41 635.12 650.55 651.52 634.35 654.95 618.16 659.41 601.97 664.38 585.78 669.3 569.59 673.63 553.4 676.88 537.21 678.68 521.02 678.83 504.83 677.32 488.64 674.3 472.45 670.13 456.26 665.27 440.07 660.27 423.88 655.69 407.69 652.03 391.5 649.73 375.3 649.02 359.11 650 342.92 652.55 326.73 656.38 310.54 661.07 294.35 666.09 278.16 670.87 261.97 674.88 245.78 677.67 229.59 678.92 213.4 678.5 197.21 676.44 181.02 672.99 164.83 668.53 148.64 663.56 132.45 658.63 132.67 642.18 133.31 625.72 134.27 609.27 135.44 592.81 136.68 576.35 137.84 559.9 138.77 543.44 139.36 526.99 139.54 510.53 139.29 494.08 138.64 477.62 137.67 461.16 136.49 444.71 135.25 428.25 134.1 411.8 133.18 395.34 132.61 378.89 132.45 362.43 132.72 345.97 133.39 329.52 134.38 313.06 135.57 296.61 136.8 280.15 137.94 263.7 138.85 247.24 139.4 230.78 139.54 214.33 139.24 197.87 138.55 181.42 137.55 164.96 136.36 148.51 135.12 132.05" stroke-dasharray="0 0" transform="rotate(37.68518518518518, 400, 400)" opacity="0.24"></path><path d="M141.56 139.33Q157.64 142.94 173.73 146.45 189.82 149.49 205.91 151.72 222 152.9 238.09 152.92 254.18 151.76 270.27 149.56 286.35 146.54 302.44 143.04 318.53 139.42 334.62 136.08 350.71 133.38 366.8 131.6 382.89 130.93 398.97 131.46 415.06 133.11 431.15 135.72 447.24 139 463.33 142.6 479.42 146.14 495.51 149.23 511.6 151.55 527.68 152.84 543.77 152.97 559.86 151.92 575.95 149.8 592.04 146.85 608.13 143.38 624.22 139.75 640.31 136.37 656.39 133.59 660.94 149.63 665.15 165.66 668.52 181.69 670.66 197.73 671.33 213.76 670.44 229.79 668.11 245.83 664.59 261.86 660.31 277.89 655.75 293.93 651.46 309.96 647.93 325.99 645.57 342.02 644.66 358.06 645.31 374.09 647.43 390.12 650.79 406.16 654.98 422.19 659.53 438.22 663.89 454.26 667.57 470.29 670.14 486.32 671.29 502.36 670.89 518.39 668.98 534.42 665.8 550.46 661.7 566.49 657.18 582.52 652.75 598.56 648.93 614.59 646.17 630.62 644.78 646.66 628.96 650.4 613.13 654.97 597.31 659.86 581.48 664.55 565.66 668.53 549.83 671.39 534 672.81 518.18 672.63 502.35 670.89 486.53 667.76 470.7 663.59 454.88 658.81 439.05 653.95 423.23 649.52 407.4 646 391.57 643.77 375.75 643.06 359.92 643.96 344.1 646.36 328.27 650.01 312.45 654.52 296.62 659.4 280.8 664.13 264.97 668.2 249.15 671.18 233.32 672.74 217.49 672.72 201.67 671.12 185.84 668.11 170.02 664.01 154.19 659.27 138.37 654.39 138.75 638.3 139.51 622.2 140.55 606.1 141.77 590.01 143.01 573.91 144.14 557.82 145.01 541.72 145.53 525.63 145.64 509.53 145.33 493.43 144.63 477.34 143.62 461.24 142.42 445.15 141.17 429.05 140.02 412.95 139.09 396.86 138.51 380.76 138.33 364.67 138.58 348.57 139.23 332.48 140.2 316.38 141.38 300.28 142.63 284.19 143.81 268.09 144.77 252 145.41 235.9 145.66 219.8 145.47 203.71 144.88 187.61 143.96 171.52 142.8 155.42 141.56 139.33" stroke-dasharray="0 0" transform="rotate(41.11111111111111, 400, 400)" opacity="0.26"></path><path d="M148.02 146.65Q163.77 150.2 179.53 153.53 195.28 156.29 211.03 158.2 226.78 159.07 242.54 158.8 258.29 157.42 274.04 155.08 289.79 152.01 305.54 148.53 321.3 145 337.05 141.77 352.8 139.18 368.55 137.5 384.31 136.89 400.06 137.41 415.81 139.02 431.56 141.55 447.31 144.74 463.07 148.26 478.82 151.76 494.57 154.87 510.32 157.27 526.07 158.73 541.83 159.08 557.58 158.3 573.33 156.47 589.08 153.76 604.84 150.47 620.59 146.92 636.34 143.48 652.09 140.51 656.44 156.18 660.29 171.85 663.21 187.52 664.89 203.19 665.14 218.86 663.92 234.53 661.38 250.2 657.79 265.87 653.56 281.54 649.15 297.21 645.06 312.88 641.74 328.55 639.57 344.22 638.77 359.89 639.45 375.56 641.52 391.23 644.76 406.9 648.8 422.57 653.2 438.24 657.46 453.91 661.12 469.58 663.76 485.25 665.09 500.92 664.97 516.59 663.4 532.26 660.56 547.94 656.77 563.61 652.45 579.28 648.08 594.95 644.14 610.62 641.08 626.29 639.23 641.96 623.77 645.95 608.3 650.55 592.84 655.31 577.37 659.73 561.91 663.35 546.44 665.81 530.98 666.86 515.51 666.38 500.05 664.43 484.58 661.21 469.12 657.04 453.65 652.36 438.19 647.63 422.72 643.36 407.26 639.97 391.79 637.81 376.33 637.11 360.86 637.93 345.4 640.19 329.93 643.66 314.47 647.98 299 652.72 283.54 657.38 268.07 661.49 252.61 664.63 237.14 666.47 221.68 666.83 206.21 665.67 190.75 663.11 175.28 659.42 159.82 654.96 144.35 650.19 144.88 634.46 145.75 618.72 146.88 602.99 148.13 587.25 149.36 571.52 150.44 555.78 151.25 540.04 151.7 524.31 151.73 508.57 151.35 492.84 150.6 477.1 149.56 461.37 148.34 445.63 147.08 429.89 145.93 414.16 145.01 398.42 144.41 382.69 144.22 366.95 144.45 351.22 145.07 335.48 146.02 319.74 147.18 304.01 148.44 288.27 149.65 272.54 150.67 256.8 151.4 241.07 151.75 225.33 151.68 209.59 151.2 193.86 150.36 178.12 149.26 162.39 148.02 146.65" stroke-dasharray="0 0" transform="rotate(44.53703703703704, 400, 400)" opacity="0.28"></path><path d="M154.52 154.01Q169.93 157.45 185.35 160.56 200.76 163.02 216.17 164.6 231.59 165.15 247 164.61 262.41 163.03 277.83 160.57 293.24 157.47 308.66 154.02 324.07 150.58 339.48 147.47 354.9 144.99 370.31 143.4 385.73 142.84 401.14 143.37 416.55 144.94 431.97 147.39 447.38 150.48 462.79 153.92 478.21 157.37 493.62 160.49 509.04 162.97 524.45 164.58 539.86 165.15 555.28 164.63 570.69 163.08 586.1 160.64 601.52 157.55 616.93 154.11 632.35 150.66 647.76 147.54 651.84 162.85 655.3 178.15 657.78 193.46 659 208.77 658.85 224.08 657.33 239.39 654.61 254.7 650.97 270 646.81 285.31 642.56 300.62 638.68 315.93 635.57 331.24 633.57 346.55 632.88 361.85 633.59 377.16 635.61 392.47 638.73 407.78 642.63 423.09 646.88 438.39 651.03 453.7 654.66 469.01 657.36 484.32 658.86 499.63 658.99 514.94 657.75 530.24 655.26 545.55 651.78 560.86 647.7 576.17 643.43 591.48 639.43 606.79 636.13 622.09 633.88 637.4 618.77 641.56 603.66 646.15 588.55 650.72 573.45 654.83 558.34 658.08 543.23 660.15 528.12 660.84 513.01 660.08 497.9 657.94 482.79 654.63 467.68 650.49 452.58 645.9 437.47 641.32 422.36 637.2 407.25 633.94 392.14 631.85 377.03 631.15 361.92 631.9 346.82 634.02 331.71 637.31 316.6 641.45 301.49 646.03 286.38 650.61 271.27 654.74 256.16 658.02 241.05 660.12 225.95 660.84 210.84 660.11 195.73 658.01 180.62 654.73 165.51 650.59 150.4 646.01 151.07 630.64 152.05 615.26 153.23 599.89 154.5 584.51 155.71 569.14 156.74 553.76 157.48 538.39 157.85 523.01 157.81 507.64 157.36 492.26 156.56 476.89 155.49 461.51 154.26 446.14 153 430.76 151.84 415.39 150.92 400.01 150.32 384.64 150.11 369.26 150.31 353.89 150.9 338.51 151.83 323.14 152.98 307.76 154.24 292.39 155.47 277.01 156.55 261.64 157.36 246.26 157.81 230.88 157.85 215.51 157.49 200.13 156.75 184.76 155.73 169.38 154.52 154.01" stroke-dasharray="0 0" transform="rotate(47.96296296296296, 400, 400)" opacity="0.30"></path><path d="M161.03 161.38Q176.11 164.66 191.18 167.51 206.25 169.67 221.33 170.92 236.4 171.16 251.47 170.36 266.54 168.59 281.62 166.03 296.69 162.9 311.76 159.51 326.84 156.16 341.91 153.17 356.98 150.81 372.06 149.31 387.13 148.8 402.2 149.33 417.28 150.85 432.35 153.22 447.42 156.23 462.49 159.58 477.57 162.97 492.64 166.09 507.71 168.64 522.79 170.38 537.86 171.16 552.93 170.9 568.01 169.63 583.08 167.46 598.15 164.6 613.22 161.31 628.3 157.89 643.37 154.68 647.14 169.62 650.19 184.57 652.2 199.52 652.99 214.46 652.46 229.41 650.67 244.36 647.81 259.3 644.16 274.25 640.08 289.2 636 304.14 632.32 319.09 629.41 334.03 627.58 348.98 627 363.93 627.73 378.87 629.7 393.82 632.71 408.77 636.45 423.71 640.56 438.66 644.6 453.61 648.19 468.55 650.94 483.5 652.59 498.45 652.96 513.39 652.03 528.34 649.88 543.29 646.74 558.23 642.91 573.18 638.79 588.13 634.79 603.07 631.31 618.02 628.71 632.97 613.96 637.22 599.2 641.73 584.45 646.08 569.69 649.86 554.93 652.73 540.18 654.41 525.42 654.75 510.67 653.72 495.91 651.41 481.15 648.05 466.4 643.93 451.64 639.45 436.89 635.02 422.13 631.05 407.38 627.91 392.62 625.9 377.86 625.2 363.11 625.87 348.35 627.86 333.6 630.97 318.84 634.93 304.08 639.35 289.33 643.84 274.57 647.97 259.82 651.35 245.06 653.69 230.3 654.74 215.55 654.43 200.79 652.77 186.04 649.93 171.28 646.16 156.52 641.82 157.32 626.81 158.39 611.79 159.62 596.78 160.89 581.77 162.07 566.75 163.04 551.74 163.7 536.72 163.99 521.71 163.87 506.7 163.36 491.68 162.52 476.67 161.41 461.65 160.17 446.64 158.91 431.63 157.75 416.61 156.83 401.6 156.22 386.59 156 371.57 156.17 356.56 156.74 341.54 157.63 326.53 158.77 311.52 160.02 296.5 161.28 281.49 162.4 266.47 163.28 251.46 163.83 236.45 163.99 221.43 163.75 206.42 163.13 191.4 162.19 176.39 161.03 161.38" stroke-dasharray="0 0" transform="rotate(51.38888888888889, 400, 400)" opacity="0.31"></path><path d="M167.56 168.74Q182.29 171.82 197.02 174.39 211.75 176.22 226.48 177.14 241.21 177.08 255.94 176.04 270.67 174.11 285.39 171.46 300.12 168.33 314.85 164.99 329.58 161.74 344.31 158.87 359.04 156.63 373.77 155.21 388.5 154.75 403.23 155.28 417.96 156.76 432.69 159.06 447.42 161.97 462.15 165.24 476.88 168.57 491.61 171.67 506.33 174.28 521.06 176.15 535.79 177.12 550.52 177.11 565.25 176.12 579.98 174.23 594.71 171.61 609.44 168.5 624.17 165.16 638.9 161.9 642.31 176.49 644.93 191.07 646.49 205.66 646.86 220.24 645.99 234.83 643.96 249.41 640.98 264 637.33 278.58 633.36 293.17 629.45 307.75 625.98 322.34 623.27 336.92 621.6 351.51 621.12 366.09 621.87 380.68 623.79 395.26 626.69 409.85 630.29 424.44 634.24 439.02 638.18 453.61 641.71 468.19 644.5 482.78 646.28 497.36 646.88 511.95 646.25 526.53 644.43 541.12 641.62 555.7 638.07 570.29 634.13 584.87 630.18 599.46 626.59 614.04 623.72 628.63 609.31 632.91 594.91 637.28 580.5 641.36 566.09 644.8 551.69 647.28 537.28 648.58 522.87 648.59 508.47 647.32 494.06 644.86 479.66 641.45 465.25 637.37 450.84 633 436.44 628.71 422.03 624.9 407.62 621.88 393.22 619.94 378.81 619.24 364.4 619.85 350 621.7 335.59 624.65 321.19 628.42 306.78 632.68 292.37 637.06 277.97 641.17 263.56 644.64 249.15 647.18 234.75 648.54 220.34 648.62 205.93 647.41 191.53 645.01 177.12 641.64 162.72 637.59 163.63 622.94 164.78 608.29 166.04 593.64 167.3 578.98 168.43 564.33 169.33 549.68 169.9 535.03 170.11 520.38 169.92 505.72 169.35 491.07 168.46 476.42 167.33 461.77 166.07 447.12 164.81 432.47 163.66 417.81 162.74 403.16 162.13 388.51 161.88 373.86 162.04 359.21 162.57 344.56 163.44 329.9 164.54 315.25 165.79 300.6 167.06 285.95 168.22 271.3 169.18 256.65 169.82 241.99 170.1 227.34 169.98 212.69 169.48 198.04 168.65 183.39 167.56 168.74" stroke-dasharray="0 0" transform="rotate(54.81481481481481, 400, 400)" opacity="0.33"></path><path d="M174.09 176.06Q188.47 178.91 202.85 181.18 217.23 182.68 231.62 183.28 246 182.93 260.38 181.66 274.76 179.58 289.15 176.87 303.53 173.75 317.91 170.47 332.29 167.33 346.67 164.58 361.06 162.45 375.44 161.12 389.82 160.71 404.2 161.24 418.59 162.68 432.97 164.9 447.35 167.71 461.73 170.89 476.12 174.16 490.5 177.24 504.88 179.89 519.26 181.87 533.64 183.03 548.03 183.25 562.41 182.53 576.79 180.93 591.17 178.58 605.56 175.67 619.94 172.46 634.32 169.2 637.35 183.43 639.52 197.65 640.64 211.87 640.61 226.1 639.42 240.32 637.2 254.54 634.13 268.77 630.51 282.99 626.65 297.21 622.92 311.44 619.65 325.66 617.14 339.89 615.63 354.11 615.24 368.33 616.01 382.56 617.88 396.78 620.67 411 624.13 425.23 627.94 439.45 631.75 453.67 635.23 467.9 638.04 482.12 639.94 496.34 640.75 510.57 640.39 524.79 638.91 539.01 636.42 553.24 633.17 567.46 629.45 581.69 625.6 595.91 621.96 610.13 618.87 624.36 604.81 628.6 590.75 632.79 576.69 636.57 562.64 639.64 548.58 641.73 534.52 642.66 520.46 642.37 506.4 640.86 492.34 638.28 478.28 634.83 464.22 630.81 450.16 626.55 436.1 622.42 422.04 618.75 407.98 615.86 393.93 613.98 379.87 613.29 365.81 613.83 351.75 615.56 337.69 618.33 323.63 621.92 309.57 626.01 295.51 630.28 281.45 634.35 267.39 637.88 253.33 640.59 239.27 642.24 225.21 642.69 211.16 641.91 197.1 639.96 183.04 637.01 168.98 633.3 170 619.01 171.2 604.72 172.48 590.43 173.71 576.14 174.78 561.85 175.6 547.56 176.1 533.28 176.21 518.99 175.95 504.7 175.32 490.41 174.39 476.12 173.24 461.83 171.98 447.54 170.72 433.26 169.57 418.97 168.65 404.68 168.03 390.39 167.78 376.1 167.9 361.81 168.41 347.53 169.24 333.24 170.32 318.95 171.55 304.66 172.83 290.37 174.03 276.08 175.04 261.79 175.77 247.51 176.17 233.22 176.18 218.93 175.81 204.64 175.09 190.35 174.09 176.06" stroke-dasharray="0 0" transform="rotate(58.24074074074074, 400, 400)" opacity="0.35"></path><path d="M180.6 183.34Q194.64 185.92 208.67 187.87 222.7 189.03 236.73 189.31 250.76 188.7 264.79 187.23 278.83 185.02 292.86 182.25 306.89 179.15 320.92 175.95 334.95 172.92 348.98 170.29 363.01 168.27 377.05 167.03 391.08 166.66 405.11 167.2 419.14 168.59 433.17 170.73 447.2 173.46 461.24 176.54 475.27 179.74 489.3 182.8 503.33 185.47 517.36 187.56 531.39 188.88 545.42 189.33 559.46 188.88 573.49 187.56 587.52 185.49 601.55 182.81 615.58 179.75 629.61 176.55 632.23 190.42 633.95 204.28 634.65 218.14 634.25 232 632.78 245.86 630.39 259.72 627.27 273.59 623.69 287.45 619.97 301.31 616.42 315.17 613.35 329.03 611.03 342.89 609.66 356.76 609.36 370.62 610.15 384.48 611.97 398.34 614.65 412.2 617.97 426.07 621.63 439.93 625.33 453.79 628.74 467.65 631.57 481.51 633.56 495.37 634.56 509.24 634.47 523.1 633.3 536.96 631.15 550.82 628.21 564.68 624.73 578.54 621.02 592.41 617.39 606.27 614.15 620.13 600.44 624.27 586.73 628.23 573.01 631.69 559.3 634.38 545.59 636.08 531.87 636.66 518.16 636.07 504.44 634.37 490.73 631.67 477.02 628.21 463.3 624.25 449.59 620.11 435.87 616.12 422.16 612.6 408.45 609.83 394.73 608.03 381.02 607.34 367.3 607.81 353.59 609.42 339.88 612.03 326.16 615.43 312.45 619.35 298.73 623.49 285.02 627.51 271.31 631.08 257.59 633.94 243.88 635.84 230.17 636.64 216.45 636.27 202.74 634.77 189.02 632.25 175.31 628.91 176.42 614.99 177.66 601.06 178.93 587.14 180.12 573.21 181.13 559.29 181.87 545.37 182.27 531.44 182.3 517.52 181.96 503.59 181.27 489.67 180.31 475.75 179.14 461.82 177.87 447.9 176.62 433.97 175.48 420.05 174.56 406.13 173.94 392.2 173.67 378.28 173.77 364.35 174.24 350.43 175.03 336.5 176.08 322.58 177.3 308.66 178.58 294.73 179.8 280.81 180.87 266.88 181.69 252.96 182.19 239.04 182.33 225.11 182.09 211.19 181.5 197.26 180.6 183.34" stroke-dasharray="0 0" transform="rotate(61.666666666666664, 400, 400)" opacity="0.37"></path><path d="M187.1 190.55Q200.78 192.83 214.46 194.45 228.13 195.28 241.81 195.26 255.49 194.38 269.16 192.73 282.84 190.42 296.52 187.62 310.19 184.55 323.87 181.43 337.55 178.51 351.23 176.01 364.9 174.1 378.58 172.95 392.26 172.62 405.93 173.15 419.61 174.51 433.29 176.57 446.96 179.2 460.64 182.19 474.32 185.31 487.99 188.34 501.67 191.04 515.35 193.2 529.02 194.67 542.7 195.34 556.38 195.15 570.05 194.12 583.73 192.33 597.41 189.9 611.08 187.04 624.76 183.94 626.95 197.44 628.23 210.94 628.52 224.44 627.78 237.94 626.07 251.43 623.54 264.93 620.39 278.43 616.88 291.93 613.3 305.43 609.93 318.93 607.07 332.43 604.94 345.93 603.71 359.43 603.49 372.93 604.29 386.43 606.05 399.93 608.63 413.43 611.81 426.93 615.34 440.43 618.91 453.93 622.25 467.43 625.08 480.93 627.16 494.43 628.33 507.93 628.48 521.42 627.61 534.92 625.8 548.42 623.17 561.92 619.96 575.42 616.43 588.92 612.86 602.42 609.54 615.92 596.17 619.9 582.8 623.59 569.43 626.7 556.06 629 542.69 630.33 529.32 630.57 515.95 629.71 502.58 627.82 489.21 625.04 475.84 621.57 462.47 617.69 449.1 613.67 435.73 609.83 422.36 606.46 408.99 603.8 395.62 602.07 382.25 601.38 368.89 601.8 355.52 603.29 342.15 605.73 328.78 608.95 315.41 612.7 302.04 616.7 288.67 620.65 275.3 624.24 261.93 627.22 248.56 629.34 235.19 630.46 221.82 630.49 208.45 629.42 195.08 627.35 181.71 624.41 182.88 610.85 184.15 597.3 185.4 583.74 186.54 570.18 187.47 556.62 188.12 543.06 188.42 529.5 188.37 515.95 187.95 502.39 187.22 488.83 186.21 475.27 185.03 461.71 183.76 448.15 182.51 434.6 181.38 421.04 180.47 407.48 179.85 393.92 179.56 380.36 179.64 366.8 180.07 353.25 180.83 339.69 181.85 326.13 183.04 312.57 184.31 299.01 185.55 285.45 186.67 271.9 187.57 258.34 188.17 244.78 188.44 231.22 188.33 217.66 187.88 204.11 187.1 190.55" stroke-dasharray="0 0" transform="rotate(65.0925925925926, 400, 400)" opacity="0.38"></path><path d="M193.57 197.66Q206.89 199.63 220.21 200.91 233.53 201.41 246.84 201.1 260.16 200 273.48 198.18 286.8 195.78 300.12 192.96 313.43 189.94 326.75 186.92 340.07 184.11 353.39 181.73 366.7 179.94 380.02 178.86 393.34 178.58 406.66 179.11 419.98 180.42 433.29 182.41 446.61 184.94 459.93 187.84 473.25 190.88 486.57 193.87 499.88 196.57 513.2 198.81 526.52 200.42 539.84 201.29 553.16 201.35 566.47 200.6 579.79 199.09 593.11 196.94 606.43 194.29 619.75 191.33 621.5 204.47 622.36 217.61 622.26 230.74 621.21 243.88 619.29 257.02 616.66 270.15 613.5 283.29 610.08 296.43 606.65 309.56 603.47 322.7 600.81 335.83 598.85 348.97 597.76 362.11 597.62 375.24 598.43 388.38 600.14 401.52 602.62 414.65 605.66 427.79 609.05 440.93 612.5 454.06 615.76 467.2 618.58 480.34 620.73 493.47 622.04 506.61 622.43 519.75 621.85 532.88 620.35 546.02 618.05 559.16 615.13 572.29 611.81 585.43 608.34 598.57 605.01 611.7 591.98 615.47 578.96 618.85 565.93 621.6 552.9 623.52 539.88 624.48 526.85 624.4 513.83 623.29 500.8 621.24 487.77 618.39 474.75 614.93 461.72 611.13 448.69 607.24 435.67 603.55 422.64 600.32 409.61 597.78 396.59 596.11 383.56 595.43 370.54 595.79 357.51 597.16 344.48 599.45 331.46 602.49 318.43 606.07 305.4 609.92 292.38 613.78 279.35 617.37 266.32 620.44 253.3 622.75 240.27 624.16 227.25 624.56 214.22 623.92 201.19 622.29 188.17 619.78 189.39 606.59 190.66 593.4 191.88 580.21 192.95 567.01 193.79 553.82 194.34 540.63 194.56 527.44 194.41 514.25 193.93 501.06 193.14 487.87 192.11 474.68 190.91 461.49 189.65 448.3 188.41 435.1 187.29 421.91 186.38 408.72 185.75 395.53 185.45 382.34 185.51 369.15 185.91 355.96 186.62 342.77 187.6 329.58 188.77 316.38 190.03 303.19 191.28 290 192.44 276.81 193.41 263.62 194.11 250.43 194.49 237.24 194.53 224.05 194.21 210.86 193.57 197.66" stroke-dasharray="0 0" transform="rotate(68.51851851851852, 400, 400)" opacity="0.40"></path><path d="M200 204.68Q212.95 206.31 225.91 207.25 238.86 207.44 251.82 206.85 264.77 205.53 277.73 203.58 290.68 201.11 303.64 198.29 316.59 195.32 329.55 192.4 342.5 189.72 355.46 187.46 368.41 185.78 381.37 184.78 394.32 184.54 407.28 185.07 420.23 186.34 433.19 188.25 446.14 190.69 459.1 193.48 472.05 196.45 485 199.38 497.96 202.09 510.91 204.38 523.87 206.11 536.82 207.16 549.78 207.46 562.73 206.99 575.69 205.77 588.64 203.9 608.73 206.49 616.32 224.27 615.87 237.04 614.55 249.81 612.46 262.58 609.74 275.36 606.61 288.13 603.29 300.9 600.02 313.67 597.04 326.45 594.57 339.22 592.78 351.99 591.82 364.76 591.75 377.54 592.57 390.31 594.23 403.08 596.61 415.86 599.52 428.63 602.76 441.4 606.09 454.17 609.27 466.95 612.06 479.72 614.26 492.49 615.71 505.26 616.31 518.04 616 530.81 614.82 543.58 612.84 556.36 610.22 569.13 607.14 581.9 603.83 594.67 600.53 607.45 587.85 610.96 575.17 614.01 562.48 616.38 549.8 617.92 537.12 618.52 524.44 618.14 511.75 616.81 499.07 614.62 486.39 611.71 473.7 608.28 461.02 604.57 448.34 600.81 435.66 597.27 422.97 594.19 410.29 591.76 397.61 590.15 384.92 589.48 372.24 589.79 359.56 591.05 346.88 593.18 334.19 596.04 321.51 599.44 308.83 603.14 296.14 606.9 283.46 610.47 270.78 613.6 258.1 616.08 245.41 617.75 232.73 618.49 220.05 618.26 207.36 617.06 194.68 614.99 195.93 602.17 197.19 589.35 198.35 576.52 199.35 563.7 200.1 550.88 200.55 538.06 200.67 525.23 200.44 512.41 199.89 499.59 199.05 486.77 198 473.95 196.79 461.12 195.53 448.3 194.3 435.48 193.19 422.66 192.29 409.83 191.66 397.01 191.35 384.19 191.38 371.37 191.74 358.54 192.42 345.72 193.36 332.9 194.49 320.08 195.73 307.25 196.99 294.43 198.18 281.61 199.2 268.79 200 255.97 200.5 243.14 200.67 230.32 200.5 217.5 200 204.68" stroke-dasharray="0 0" transform="rotate(71.94444444444444, 400, 400)" opacity="0.42"></path><path d="M206.38 211.56Q218.96 212.86 231.55 213.47 244.14 213.35 256.73 212.51 269.31 211 281.9 208.92 294.49 206.4 307.08 203.61 319.66 200.71 332.25 197.89 344.84 195.33 357.43 193.19 370.01 191.62 382.6 190.7 395.19 190.5 407.78 191.03 420.36 192.25 432.95 194.09 445.54 196.44 458.12 199.13 470.71 202.01 483.3 204.89 495.89 207.58 508.47 209.92 521.06 211.76 533.65 212.97 546.24 213.49 558.82 213.28 571.41 212.36 584 210.78 603.33 213.56 610.13 230.89 609.36 243.3 607.8 255.71 605.57 268.12 602.81 280.52 599.73 292.93 596.52 305.34 593.42 317.75 590.63 330.16 588.35 342.56 586.73 354.97 585.89 367.38 585.89 379.79 586.72 392.19 588.32 404.6 590.6 417.01 593.38 429.42 596.48 441.83 599.69 454.23 602.78 466.64 605.54 479.05 607.78 491.46 609.34 503.87 610.13 516.27 610.07 528.68 609.19 541.09 607.53 553.5 605.22 565.91 602.41 578.31 599.29 590.72 596.09 603.13 583.75 606.35 571.41 609.04 559.07 611.03 546.73 612.2 534.39 612.46 522.05 611.8 509.71 610.27 497.38 607.96 485.04 605.02 472.7 601.63 460.36 598.01 448.02 594.39 435.68 591 423.34 588.05 411 585.74 398.67 584.2 386.33 583.53 373.99 583.79 361.65 584.94 349.31 586.92 336.97 589.61 324.63 592.83 312.29 596.37 299.96 600.02 287.62 603.54 275.28 606.71 262.94 609.32 250.6 611.22 238.26 612.28 225.92 612.43 213.59 611.66 201.25 610.03 202.5 597.58 203.72 585.13 204.83 572.68 205.73 560.22 206.38 547.77 206.73 535.32 206.75 522.87 206.44 510.41 205.83 497.96 204.95 485.51 203.87 473.06 202.66 460.61 201.4 448.15 200.19 435.7 199.09 423.25 198.2 410.8 197.57 398.35 197.25 385.89 197.25 373.44 197.58 360.99 198.21 348.54 199.11 336.08 200.2 323.63 201.42 311.18 202.67 298.73 203.88 286.28 204.96 273.82 205.84 261.37 206.45 248.92 206.75 236.47 206.73 224.02 206.38 211.56" stroke-dasharray="0 0" transform="rotate(75.37037037037037, 400, 400)" opacity="0.44"></path><path d="M212.69 218.31Q224.91 219.27 237.13 219.55 249.34 219.14 261.56 218.07 273.77 216.4 285.99 214.22 298.21 211.68 310.42 208.91 322.64 206.09 334.85 203.38 347.07 200.95 359.28 198.94 371.5 197.47 383.72 196.62 395.93 196.46 408.15 196.98 420.36 198.17 432.58 199.93 444.8 202.18 457.01 204.78 469.23 207.57 481.44 210.38 493.66 213.05 505.87 215.42 518.09 217.35 530.31 218.72 542.52 219.44 554.74 219.49 566.95 218.85 579.17 217.56 597.74 220.56 603.79 237.47 602.73 249.51 600.98 261.55 598.64 273.59 595.87 285.63 592.85 297.68 589.77 309.72 586.84 321.76 584.24 333.8 582.15 345.84 580.69 357.88 579.97 369.93 580.02 381.97 580.86 394.01 582.41 406.05 584.59 418.09 587.24 430.14 590.21 442.18 593.29 454.22 596.29 466.26 599 478.3 601.27 490.35 602.93 502.39 603.88 514.43 604.07 526.47 603.47 538.51 602.12 550.56 600.12 562.6 597.6 574.64 594.71 586.68 591.64 598.72 579.65 601.62 567.65 603.94 555.66 605.55 543.67 606.35 531.67 606.3 519.68 605.39 507.69 603.68 495.69 601.27 483.7 598.31 471.71 594.98 459.71 591.46 447.72 587.98 435.73 584.73 423.73 581.93 411.74 579.72 399.75 578.24 387.75 577.58 375.76 577.79 363.77 578.84 351.77 580.68 339.78 583.19 327.79 586.23 315.79 589.61 303.8 593.14 291.8 596.59 279.81 599.77 267.82 602.49 255.82 604.58 243.83 605.92 231.84 606.43 214.47 599.44 210.26 580.72 211.29 568.64 212.1 556.56 212.64 544.48 212.88 532.4 212.81 520.32 212.42 508.24 211.75 496.16 210.83 484.08 209.73 472 208.52 459.92 207.27 447.84 206.07 435.76 205 423.68 204.11 411.6 203.48 399.52 203.15 387.44 203.12 375.36 203.42 363.28 204.01 351.2 204.86 339.12 205.91 327.04 207.09 314.96 208.34 302.88 209.56 290.8 210.68 278.72 211.63 266.64 212.34 254.56 212.77 242.48 212.89 230.39 212.69 218.31" stroke-dasharray="0 0" transform="rotate(78.79629629629629, 400, 400)" opacity="0.45"></path><path d="M218.94 224.92Q230.78 225.53 242.62 225.5 254.46 224.83 266.3 223.55 278.15 221.73 289.99 219.48 301.83 216.92 313.67 214.2 325.51 211.47 337.35 208.88 349.19 206.57 361.03 204.68 372.87 203.32 384.71 202.55 396.55 202.42 408.39 202.94 420.23 204.08 432.07 205.78 443.91 207.93 455.75 210.43 467.59 213.12 479.43 215.87 491.27 218.51 503.11 220.89 514.95 222.89 526.79 224.39 538.63 225.31 550.47 225.6 562.31 225.23 574.15 224.24 591.96 227.48 597.31 243.97 596 255.64 594.08 267.32 591.67 278.99 588.91 290.66 585.98 302.34 583.04 314.01 580.29 325.69 577.88 337.36 575.97 349.04 574.66 360.71 574.05 372.39 574.16 384.06 575 395.74 576.5 407.41 578.58 419.09 581.11 430.76 583.94 442.44 586.9 454.11 589.8 465.79 592.46 477.46 594.74 489.14 596.48 500.81 597.58 512.48 597.98 524.16 597.65 535.83 596.61 547.51 594.92 559.18 592.69 570.86 590.06 582.53 587.17 594.21 575.52 596.76 563.88 598.7 552.23 599.94 540.59 600.39 528.94 600.03 517.29 598.89 505.65 597.03 494 594.55 482.35 591.59 470.71 588.32 459.06 584.91 447.41 581.57 435.77 578.47 424.12 575.8 412.48 573.7 400.83 572.28 389.18 571.64 377.54 571.8 365.89 572.75 354.24 574.45 342.6 576.79 330.95 579.65 319.3 582.86 307.66 586.25 296.01 589.63 284.37 592.8 272.72 595.59 261.07 597.84 249.43 599.43 237.78 600.27 220.91 594.07 216.8 576.13 217.73 564.42 218.43 552.71 218.87 541.01 219.01 529.3 218.84 517.59 218.38 505.89 217.65 494.18 216.7 482.47 215.58 470.76 214.37 459.06 213.14 447.35 211.95 435.64 210.89 423.94 210.02 412.23 209.4 400.52 209.05 388.81 209 377.11 209.26 365.4 209.8 353.69 210.6 341.99 211.61 330.28 212.76 318.57 213.99 306.87 215.22 295.16 216.37 283.45 217.38 271.74 218.18 260.04 218.73 248.33 218.99 236.62 218.94 224.92" stroke-dasharray="0 0" transform="rotate(82.22222222222221, 400, 400)" opacity="0.47"></path><path d="M225.12 231.36Q236.58 231.64 248.04 231.32 259.5 230.4 270.96 228.94 282.42 227 293.88 224.7 305.34 222.15 316.8 219.49 328.26 216.85 339.73 214.38 351.19 212.21 362.65 210.44 374.11 209.17 385.57 208.48 397.03 208.38 408.49 208.9 419.95 210 431.41 211.62 442.87 213.68 454.33 216.08 465.79 218.67 477.26 221.34 488.72 223.94 500.18 226.33 511.64 228.39 523.1 230.01 534.56 231.1 546.02 231.61 557.48 231.51 568.94 230.81 586.01 234.3 590.7 250.37 589.18 261.68 587.13 272.99 584.68 284.29 581.96 295.6 579.13 306.9 576.34 318.21 573.77 329.52 571.55 340.82 569.81 352.13 568.65 363.44 568.14 374.74 568.31 386.05 569.14 397.35 570.59 408.66 572.58 419.97 574.99 431.27 577.68 442.58 580.51 453.89 583.31 465.19 585.92 476.5 588.19 487.8 589.99 499.11 591.23 510.42 591.82 521.72 591.74 533.03 590.99 544.34 589.61 555.64 587.69 566.95 585.32 578.25 582.66 589.56 571.36 591.74 560.06 593.31 548.76 594.18 537.47 594.3 526.17 593.67 514.87 592.33 503.57 590.34 492.28 587.8 480.98 584.86 469.68 581.66 458.39 578.37 447.09 575.17 435.79 572.22 424.49 569.68 413.2 567.68 401.9 566.33 390.6 565.69 379.3 565.81 368.01 566.67 356.71 568.23 345.41 570.4 334.12 573.08 322.82 576.13 311.52 579.37 300.22 582.65 288.93 585.79 277.63 588.63 266.33 591.01 255.03 592.81 243.74 593.95 227.37 588.5 223.31 571.33 224.15 559.99 224.74 548.66 225.06 537.33 225.1 526 224.84 514.66 224.31 503.33 223.53 492 222.55 480.67 221.42 469.34 220.22 458 219 446.67 217.83 435.34 216.79 424.01 215.94 412.67 215.31 401.34 214.95 390.01 214.88 378.68 215.1 367.35 215.6 356.01 216.35 344.68 217.31 333.35 218.42 322.02 219.62 310.68 220.84 299.35 222.02 288.02 223.08 276.69 223.96 265.35 224.62 254.02 225.01 242.69 225.12 231.36" stroke-dasharray="0 0" transform="rotate(85.64814814814815, 400, 400)" opacity="0.49"></path><path d="M231.21 237.63Q242.29 237.6 253.36 237.01 264.44 235.87 275.52 234.25 286.6 232.22 297.68 229.89 308.75 227.36 319.83 224.77 330.91 222.24 341.99 219.9 353.07 217.85 364.14 216.2 375.22 215.04 386.3 214.41 397.38 214.34 408.46 214.85 419.53 215.91 430.61 217.46 441.69 219.43 452.77 221.72 463.85 224.23 474.92 226.81 486 229.36 497.08 231.74 508.16 233.85 519.24 235.56 530.31 236.81 541.39 237.52 552.47 237.67 563.55 237.25 579.88 241.01 583.97 256.67 582.27 267.61 580.13 278.54 577.67 289.48 575.01 300.42 572.3 311.35 569.67 322.29 567.28 333.22 565.24 344.16 563.67 355.1 562.66 366.03 562.24 376.97 562.45 387.91 563.28 398.84 564.68 409.78 566.57 420.72 568.86 431.65 571.43 442.59 574.13 453.53 576.82 464.46 579.37 475.4 581.62 486.33 583.47 497.27 584.82 508.21 585.59 519.14 585.74 530.08 585.26 541.02 584.18 551.95 582.57 562.89 580.49 573.83 578.07 584.76 567.12 586.57 556.18 587.76 545.23 588.28 534.29 588.1 523.34 587.22 512.39 585.7 501.45 583.6 490.5 581.03 479.56 578.11 468.61 575 457.67 571.83 446.72 568.77 435.78 565.97 424.83 563.56 413.88 561.66 402.94 560.37 391.99 559.74 381.05 559.82 370.1 560.59 359.16 562.02 348.21 564.03 337.26 566.54 326.32 569.41 315.37 572.5 304.43 575.67 293.48 578.76 282.54 581.61 271.59 584.09 260.65 586.07 249.7 587.46 233.82 582.73 229.81 566.32 230.53 555.36 231.01 544.4 231.22 533.45 231.16 522.49 230.81 511.54 230.22 500.58 229.39 489.62 228.39 478.67 227.25 467.71 226.05 456.75 224.85 445.8 223.71 434.84 222.69 423.89 221.85 412.93 221.22 401.97 220.86 391.02 220.76 380.06 220.95 369.11 221.4 358.15 222.1 347.19 223 336.24 224.07 325.28 225.24 314.32 226.45 303.37 227.63 292.41 228.73 281.46 229.68 270.5 230.44 259.54 230.95 248.59 231.21 237.63" stroke-dasharray="0 0" transform="rotate(89.07407407407408, 400, 400)" opacity="0.51"></path><path d="M237.21 243.73Q247.9 243.41 258.6 242.56 269.29 241.23 279.98 239.48 290.67 237.39 301.36 235.04 312.06 232.56 322.75 230.06 333.44 227.64 344.13 225.42 354.82 223.5 365.52 221.97 376.21 220.9 386.9 220.34 397.59 220.31 408.28 220.81 418.98 221.83 429.67 223.31 440.36 225.19 451.05 227.38 461.74 229.78 472.43 232.28 483.13 234.77 493.82 237.13 504.51 239.26 515.2 241.05 525.89 242.43 536.59 243.34 547.28 243.72 557.97 243.57 573.58 247.58 577.12 262.84 575.29 273.4 573.1 283.97 570.65 294.53 568.07 305.1 565.49 315.67 563.03 326.23 560.82 336.8 558.96 347.36 557.56 357.93 556.67 368.49 556.35 379.06 556.6 389.62 557.42 400.19 558.77 410.75 560.57 421.32 562.75 431.88 565.18 442.45 567.76 453.01 570.34 463.58 572.81 474.14 575.04 484.71 576.92 495.27 578.36 505.84 579.28 516.4 579.64 526.97 579.42 537.53 578.64 548.1 577.32 558.66 569.17 575.23 552.21 582.05 541.61 582.24 531.02 581.77 520.43 580.68 509.84 579 499.25 576.82 488.66 574.23 478.07 571.36 467.48 568.34 456.89 565.3 446.29 562.38 435.7 559.73 425.11 557.44 414.52 555.65 403.93 554.41 393.34 553.8 382.75 553.84 372.16 554.52 361.57 555.82 350.97 557.68 340.38 560.01 329.79 562.7 319.2 565.64 308.61 568.69 298.02 571.7 287.43 574.54 276.84 577.09 266.24 579.22 255.65 580.83 240.26 576.77 236.28 561.09 236.88 550.52 237.24 539.94 237.34 529.36 237.18 518.78 236.75 508.2 236.09 497.62 235.23 487.04 234.21 476.46 233.07 465.89 231.89 455.31 230.7 444.73 229.58 434.15 228.59 423.57 227.76 412.99 227.14 402.41 226.76 391.83 226.65 381.26 226.79 370.68 227.2 360.1 227.85 349.52 228.7 338.94 229.72 328.36 230.84 317.78 232.03 307.2 233.21 296.63 234.34 286.05 235.35 275.47 236.19 264.89 236.82 254.31 237.21 243.73" stroke-dasharray="0 0" transform="rotate(92.5, 400, 400)" opacity="0.53"></path><path d="M243.12 249.66Q253.43 249.06 263.73 247.99 274.03 246.5 284.34 244.64 294.64 242.51 304.94 240.18 315.25 237.75 325.55 235.34 335.85 233.04 346.16 230.95 356.46 229.17 366.76 227.75 377.07 226.77 387.37 226.27 397.67 226.27 407.98 226.77 418.28 227.74 428.58 229.15 438.89 230.94 449.19 233.03 459.49 235.33 469.79 237.74 480.1 240.16 490.4 242.49 500.7 244.63 511.01 246.49 521.31 247.98 531.61 249.05 541.92 249.65 552.22 249.76 567.13 254.02 570.18 268.87 568.25 279.06 566.03 289.25 563.63 299.44 561.15 309.64 558.71 319.83 556.42 330.02 554.39 340.21 552.71 350.41 551.46 360.6 550.7 370.79 550.46 380.99 550.75 391.18 551.56 401.37 552.86 411.56 554.57 421.76 556.63 431.95 558.94 442.14 561.39 452.33 563.87 462.53 566.26 472.72 568.45 482.91 570.35 493.1 571.85 503.3 572.91 513.49 573.46 523.68 573.47 533.87 572.96 544.07 571.94 554.26 564.41 570.08 548.13 576.18 537.89 576.06 527.66 575.33 517.43 574.04 507.19 572.24 496.96 570 486.73 567.42 476.49 564.61 466.26 561.69 456.02 558.78 445.79 556 435.56 553.49 425.32 551.33 415.09 549.63 404.86 548.45 394.62 547.85 384.39 547.86 374.16 548.46 363.92 549.64 353.69 551.34 343.46 553.5 333.22 556.02 322.99 558.8 312.75 561.71 302.52 564.63 292.29 567.44 282.05 570.02 271.82 572.25 261.59 574.05 246.68 570.6 242.71 555.66 243.19 545.46 243.43 535.26 243.42 525.06 243.16 514.86 242.66 504.66 241.95 494.46 241.05 484.26 240.01 474.06 238.88 463.86 237.71 453.66 236.55 443.46 235.46 433.26 234.48 423.06 233.67 412.86 233.06 402.66 232.67 392.46 232.53 382.26 232.65 372.06 233.01 361.86 233.6 351.66 234.4 341.46 235.36 331.26 236.44 321.06 237.6 310.86 238.77 300.66 239.91 290.46 240.96 280.26 241.87 270.06 242.6 259.86 243.12 249.66" stroke-dasharray="0 0" transform="rotate(95.92592592592592, 400, 400)" opacity="0.54"></path><path d="M248.94 255.41Q258.85 254.56 268.77 253.3 278.68 251.68 288.59 249.75 298.5 247.59 308.42 245.29 318.33 242.94 328.24 240.63 338.15 238.46 348.06 236.5 357.98 234.84 367.89 233.54 377.8 232.65 387.71 232.21 397.63 232.24 407.54 232.73 417.45 233.66 427.36 235 437.27 236.7 447.19 238.68 457.1 240.88 467.01 243.2 476.92 245.54 486.84 247.83 496.75 249.97 506.66 251.87 516.57 253.46 526.48 254.68 536.4 255.47 546.31 255.81 560.53 260.3 563.15 274.74 561.16 284.56 558.95 294.38 556.62 304.2 554.25 314.01 551.97 323.83 549.85 333.65 548 343.47 546.49 353.29 545.39 363.11 544.74 372.93 544.58 382.74 544.9 392.56 545.7 402.38 546.95 412.2 548.58 422.02 550.53 431.84 552.71 441.66 555.03 451.48 557.4 461.29 559.7 471.11 561.85 480.93 563.74 490.75 565.31 500.57 566.47 510.39 567.19 520.21 567.42 530.02 567.16 539.84 566.43 549.66 559.52 564.74 543.92 570.15 534.05 569.74 524.18 568.79 514.31 567.33 504.43 565.43 494.56 563.15 484.69 560.59 474.81 557.85 464.94 555.04 455.07 552.26 445.2 549.63 435.32 547.26 425.45 545.22 415.58 543.62 405.7 542.5 395.83 541.91 385.96 541.88 376.09 542.41 366.21 543.47 356.34 545.03 346.47 547.02 336.6 549.36 326.72 551.97 316.85 554.73 306.98 557.55 297.1 560.3 287.23 562.88 277.36 565.2 267.49 567.14 253.06 564.25 249.09 550.02 249.45 540.2 249.57 530.38 249.46 520.56 249.11 510.74 248.54 500.92 247.78 491.1 246.85 481.28 245.8 471.46 244.68 461.64 243.53 451.82 242.39 442 241.33 432.17 240.38 422.35 239.58 412.53 238.97 402.71 238.58 392.89 238.42 383.07 238.5 373.25 238.82 363.43 239.36 353.61 240.09 343.79 241 333.97 242.03 324.15 243.15 314.33 244.3 304.51 245.44 294.69 246.52 284.87 247.49 275.05 248.31 265.23 248.94 255.41" stroke-dasharray="0 0" transform="rotate(99.35185185185186, 400, 400)" opacity="0.56"></path><path d="M254.67 260.98Q264.19 259.92 273.71 258.5 283.23 256.77 292.74 254.79 302.26 252.64 311.78 250.39 321.3 248.12 330.82 245.93 340.34 243.88 349.86 242.06 359.38 240.52 368.9 239.33 378.42 238.53 387.94 238.15 397.46 238.2 406.98 238.68 416.5 239.58 426.02 240.85 435.54 242.46 445.06 244.34 454.57 246.43 464.09 248.65 473.61 250.92 483.13 253.15 492.65 255.27 502.17 257.2 511.69 258.86 521.21 260.2 530.73 261.17 540.25 261.73 553.8 266.43 556.05 280.45 554.04 289.89 551.87 299.33 549.62 308.78 547.39 318.22 545.26 327.66 543.31 337.11 541.64 346.55 540.29 356 539.33 365.44 538.8 374.88 538.7 384.33 539.06 393.77 539.84 403.21 541.04 412.66 542.58 422.1 544.42 431.54 546.48 440.99 548.68 450.43 550.94 459.87 553.15 469.32 555.24 478.76 557.12 488.2 558.72 497.65 559.98 507.09 560.83 516.53 561.26 525.98 561.24 535.42 560.78 544.86 554.49 559.21 539.58 563.95 530.07 563.29 520.56 562.14 511.06 560.54 501.55 558.56 492.04 556.27 482.53 553.75 473.02 551.09 463.51 548.39 454 545.75 444.49 543.27 434.99 541.03 425.48 539.12 415.97 537.6 406.46 536.54 396.95 535.97 387.44 535.91 377.93 536.36 368.43 537.31 358.92 538.73 349.41 540.55 339.9 542.72 330.39 545.16 320.88 547.77 311.37 550.46 301.86 553.14 292.36 555.7 282.85 558.05 273.34 560.11 259.4 557.71 255.42 544.18 255.65 534.74 255.66 525.3 255.44 515.86 255.01 506.42 254.38 496.98 253.58 487.54 252.63 478.1 251.58 468.66 250.47 459.22 249.34 449.78 248.23 440.34 247.19 430.9 246.27 421.46 245.49 412.02 244.89 402.58 244.5 393.14 244.32 383.7 244.36 374.26 244.63 364.82 245.12 355.38 245.79 345.94 246.64 336.5 247.61 327.06 248.68 317.62 249.81 308.18 250.94 298.74 252.03 289.3 253.04 279.86 253.93 270.42 254.67 260.98" stroke-dasharray="0 0" transform="rotate(102.77777777777779, 400, 400)" opacity="0.58"></path><path d="M260.3 266.39Q269.43 265.14 278.55 263.59 287.68 261.79 296.8 259.79 305.93 257.66 315.05 255.48 324.18 253.31 333.3 251.24 342.43 249.32 351.55 247.63 360.68 246.22 369.8 245.14 378.93 244.42 388.05 244.1 397.18 244.17 406.3 244.64 415.43 245.49 424.55 246.7 433.68 248.22 442.8 250 451.93 251.98 461.06 254.1 470.18 256.28 479.31 258.46 488.43 260.54 497.56 262.48 506.68 264.2 515.81 265.64 524.93 266.76 534.06 267.51 546.96 272.4 548.9 285.98 546.89 295.05 544.78 304.12 542.64 313.18 540.55 322.25 538.59 331.32 536.82 340.38 535.31 349.45 534.12 358.52 533.3 367.59 532.86 376.65 532.83 385.72 533.21 394.79 533.99 403.85 535.12 412.92 536.59 421.99 538.32 431.06 540.26 440.12 542.34 449.19 544.48 458.26 546.6 467.32 548.63 476.39 550.48 485.46 552.1 494.53 553.42 503.59 554.4 512.66 555 521.73 555.19 530.79 554.98 539.86 549.3 553.48 535.09 557.6 525.95 556.71 516.81 555.39 507.66 553.68 498.52 551.65 489.38 549.37 480.24 546.9 471.1 544.34 461.96 541.76 452.82 539.26 443.68 536.92 434.53 534.81 425.39 533.02 416.25 531.59 407.11 530.58 397.97 530.03 388.83 529.94 379.69 530.32 370.55 531.17 361.4 532.45 352.26 534.11 343.12 536.11 333.98 538.37 324.84 540.83 315.7 543.38 306.56 545.96 297.42 548.48 288.27 550.84 279.13 552.97 265.68 551.01 261.68 538.15 261.79 529.09 261.69 520.03 261.38 510.97 260.88 501.92 260.19 492.86 259.35 483.8 258.39 474.74 257.34 465.68 256.25 456.62 255.14 447.56 254.06 438.5 253.06 429.45 252.16 420.39 251.4 411.33 250.81 402.27 250.41 393.21 250.21 384.15 250.23 375.09 250.46 366.03 250.88 356.97 251.5 347.92 252.28 338.86 253.19 329.8 254.21 320.74 255.29 311.68 256.4 302.62 257.5 293.56 258.54 284.5 259.48 275.44 260.3 266.39" stroke-dasharray="0 0" transform="rotate(106.20370370370371, 400, 400)" opacity="0.60"></path><path d="M265.84 271.63Q283.3 268.59 300.76 264.75 318.22 260.56 335.69 256.56 353.15 253.21 370.61 250.95 388.07 250.04 405.53 250.6 422.99 252.55 440.45 255.67 457.91 259.55 475.37 263.74 492.83 267.72 510.29 270.99 527.75 273.16 545.21 273.96 541.71 291.34 537.71 308.72 533.76 326.1 530.36 343.48 527.98 360.86 526.94 378.23 527.37 395.61 529.21 412.99 532.23 430.37 536.01 447.75 540.06 465.13 543.83 482.51 546.82 499.89 548.64 517.27 549.04 534.65 547.97 552.03 530.43 551.09 512.89 548.55 495.35 544.71 477.81 540.05 460.27 535.13 442.73 530.57 425.19 526.92 407.64 524.63 390.1 523.97 372.56 525.04 355.02 527.7 337.48 531.61 319.94 536.32 302.4 541.22 284.86 545.74 267.32 549.3 267.89 531.94 267.67 514.59 266.7 497.24 265.11 479.88 263.09 462.53 260.94 445.17 258.92 427.82 257.31 410.46 256.33 393.11 256.1 375.76 256.66 358.4 257.92 341.05 259.73 323.69 261.85 306.34 263.98 288.99 265.84 271.63" stroke-dasharray="0 0" transform="rotate(109.62962962962962, 400, 400)" opacity="0.61"></path><path d="M271.3 276.73Q287.97 273.51 304.64 269.67 321.31 265.65 337.98 261.89 354.65 258.82 371.32 256.77 387.99 255.99 404.66 256.55 421.33 258.41 438 261.33 454.67 265.01 471.34 269.02 488.01 272.92 504.68 276.26 521.35 278.67 538.02 279.89 534.5 296.51 530.67 313.14 527 329.76 523.95 346.38 521.87 363 521.03 379.63 521.53 396.25 523.3 412.87 526.14 429.49 529.69 446.12 533.52 462.74 537.16 479.36 540.18 495.98 542.19 512.61 542.97 529.23 542.4 545.85 525.61 544.44 508.81 541.62 492.02 537.73 475.23 533.19 458.43 528.52 441.64 524.23 424.85 520.82 408.05 518.67 391.26 518.01 374.47 518.92 357.67 521.3 340.88 524.88 324.09 529.26 307.29 533.95 290.5 538.42 273.71 542.16 274.02 525.57 273.59 508.98 272.49 492.39 270.83 475.8 268.83 459.21 266.73 442.62 264.78 426.03 263.22 409.44 262.25 392.85 261.98 376.26 262.44 359.67 263.58 343.08 265.25 326.49 267.27 309.9 269.37 293.32 271.3 276.73" stroke-dasharray="0 0" transform="rotate(113.05555555555557, 400, 400)" opacity="0.63"></path><path d="M276.68 281.68Q292.56 278.35 308.44 274.58 324.32 270.75 340.2 267.24 356.08 264.43 371.96 262.6 387.84 261.94 403.72 262.51 419.6 264.26 435.48 267 451.36 270.46 467.24 274.29 483.11 278.08 498.99 281.45 514.87 284.06 530.75 285.64 527.28 301.51 523.66 317.37 520.3 333.23 517.57 349.1 515.79 364.96 515.13 380.83 515.69 396.69 517.39 412.56 520.05 428.42 523.37 444.28 526.98 460.15 530.49 476.01 533.49 491.88 535.66 507.74 536.75 523.6 536.65 539.47 520.61 537.64 504.57 534.62 488.53 530.72 472.49 526.33 456.45 521.91 440.41 517.91 424.37 514.73 408.33 512.71 392.29 512.05 376.25 512.82 360.21 514.94 344.17 518.19 328.13 522.24 312.09 526.67 296.05 531.04 280.02 534.89 280.07 519.06 279.46 503.24 278.23 487.41 276.53 471.58 274.55 455.76 272.51 439.93 270.64 424.11 269.13 408.28 268.17 392.46 267.86 376.63 268.23 360.81 269.24 344.98 270.78 329.16 272.67 313.33 274.72 297.51 276.68 281.68" stroke-dasharray="0 0" transform="rotate(116.48148148148148, 400, 400)" opacity="0.65"></path><path d="M282 286.51Q297.09 283.14 312.18 279.47 327.27 275.85 342.36 272.62 357.45 270.07 372.54 268.45 387.63 267.9 402.72 268.47 417.81 270.11 432.9 272.68 447.99 275.92 463.08 279.55 478.17 283.21 493.26 286.58 508.35 289.33 523.44 291.22 520.07 306.32 516.69 321.43 513.65 336.53 511.25 351.63 509.73 366.74 509.25 381.84 509.85 396.95 511.48 412.05 513.97 427.16 517.07 442.26 520.46 457.36 523.81 472.47 526.77 487.57 529.05 502.68 530.41 517.78 530.72 532.89 515.44 530.72 500.16 527.56 484.88 523.69 469.6 519.48 454.32 515.32 439.04 511.59 423.76 508.65 408.48 506.75 393.19 506.1 377.91 506.73 362.63 508.59 347.35 511.52 332.07 515.24 316.79 519.39 301.51 523.61 286.23 527.48 286.05 512.42 285.26 497.36 283.93 482.3 282.21 467.24 280.27 452.18 278.29 437.12 276.49 422.06 275.04 407 274.1 391.94 273.75 376.88 274.03 361.82 274.91 346.76 276.3 331.7 278.07 316.63 280.04 301.57 282 286.51" stroke-dasharray="0 0" transform="rotate(119.9074074074074, 400, 400)" opacity="0.67"></path><path d="M287.25 291.24Q301.55 287.88 315.85 284.36 330.15 280.98 344.46 278.02 358.76 275.73 373.06 274.3 387.37 273.85 401.67 274.43 415.97 275.97 430.27 278.36 444.58 281.39 458.88 284.8 473.18 288.32 487.48 291.64 501.79 294.49 516.09 296.62 512.88 310.96 509.77 325.31 507.05 339.65 504.96 353.99 503.7 368.34 503.37 382.68 504.02 397.02 505.57 411.37 507.89 425.71 510.77 440.05 513.95 454.4 517.12 468.74 520.02 483.08 522.36 497.43 523.94 511.77 524.61 526.12 510.1 523.68 495.58 520.43 481.06 516.65 466.55 512.64 452.03 508.74 437.51 505.28 423 502.56 408.48 500.8 393.96 500.14 379.45 500.65 364.93 502.28 350.41 504.89 335.9 508.27 321.38 512.13 306.86 516.14 292.35 519.98 291.94 505.68 291 491.38 289.6 477.09 287.87 462.79 285.97 448.5 284.07 434.2 282.35 419.9 280.96 405.61 280.03 391.31 279.64 377.02 279.83 362.72 280.59 348.42 281.84 334.13 283.47 319.83 285.33 305.53 287.25 291.24" stroke-dasharray="0 0" transform="rotate(123.33333333333333, 400, 400)" opacity="0.68"></path><path d="M292.45 295.88Q305.97 292.59 319.49 289.25 333 286.12 346.52 283.44 360.04 281.4 373.56 280.16 387.08 279.81 400.59 280.38 414.11 281.83 427.63 284.04 441.15 286.86 454.66 290.06 468.18 293.41 481.7 296.65 495.22 299.54 508.74 301.86 505.73 315.44 502.91 329.02 500.51 342.6 498.72 356.19 497.69 369.77 497.51 383.35 498.18 396.93 499.66 410.51 501.82 424.09 504.49 437.68 507.44 451.26 510.44 464.84 513.24 478.42 515.61 492 510.97 511.06 490.84 513.27 477.09 509.59 463.34 505.8 449.59 502.18 435.84 498.99 422.1 496.48 408.35 494.84 394.6 494.19 380.85 494.59 367.1 495.99 353.35 498.3 339.6 501.34 325.85 504.89 312.11 508.66 298.36 512.39 297.76 498.86 296.68 485.33 295.22 471.79 293.5 458.26 291.66 444.73 289.84 431.2 288.2 417.67 286.87 404.13 285.96 390.6 285.54 377.07 285.66 363.54 286.29 350 287.39 336.47 288.87 322.94 290.6 309.41 292.45 295.88" stroke-dasharray="0 0" transform="rotate(126.75925925925927, 400, 400)" opacity="0.70"></path><path d="M297.62 300.44Q310.35 297.28 323.09 294.16 335.83 291.3 348.56 288.89 361.3 287.09 374.04 286.03 386.77 285.77 399.51 286.34 412.25 287.69 424.98 289.74 437.72 292.34 450.45 295.32 463.19 298.48 475.93 301.61 488.66 304.49 501.4 306.94 498.64 319.76 496.12 332.58 494.03 345.4 492.52 358.22 491.71 371.04 491.65 383.86 492.35 396.68 493.75 409.5 495.75 422.32 498.21 435.14 500.95 447.96 503.77 460.78 506.45 473.6 508.81 486.42 504.79 504.27 485.94 506.06 472.96 502.54 459.99 498.98 447.01 495.63 434.03 492.7 421.05 490.4 408.08 488.88 395.1 488.25 382.12 488.54 369.15 489.73 356.17 491.75 343.19 494.46 330.21 497.68 310.36 496.58 302.31 479.21 300.81 466.44 299.12 453.67 297.34 440.9 295.6 428.14 294.05 415.37 292.78 402.6 291.89 389.83 291.45 377.06 291.49 364.29 292 351.52 292.96 338.75 294.28 325.98 295.87 313.21 297.62 300.44" stroke-dasharray="0 0" transform="rotate(130.1851851851852, 400, 400)" opacity="0.72"></path><path d="M302.76 304.97Q314.72 301.97 326.68 299.09 338.64 296.51 350.6 294.37 362.56 292.81 374.52 291.91 386.47 291.74 398.43 292.3 410.39 293.55 422.35 295.43 434.31 297.82 446.27 300.58 458.23 303.54 470.18 306.53 482.14 309.37 494.1 311.88 491.61 323.94 489.39 336 487.61 348.06 486.37 360.12 485.76 372.17 485.8 384.23 486.51 396.29 487.84 408.35 489.69 420.4 491.95 432.46 494.47 444.52 497.1 456.58 499.65 468.64 501.96 480.69 498.49 497.37 480.9 498.83 468.69 495.49 456.49 492.18 444.29 489.1 432.08 486.43 419.88 484.33 407.68 482.93 395.47 482.3 383.27 482.5 371.07 483.5 358.86 485.24 346.66 487.63 334.46 490.52 315.69 489.4 307.88 473.06 306.37 461.06 304.71 449.05 303.01 437.04 301.36 425.04 299.89 413.03 298.69 401.02 297.83 389.02 297.37 377.01 297.33 365 297.74 352.99 298.54 340.99 299.7 328.98 301.14 316.97 302.76 304.97" stroke-dasharray="0 0" transform="rotate(133.61111111111111, 400, 400)" opacity="0.74"></path><path d="M307.9 309.46Q319.09 306.67 330.27 304.06 341.46 301.76 352.64 299.89 363.83 298.55 375.01 297.81 386.2 297.71 397.38 298.25 408.57 299.42 419.75 301.13 430.94 303.32 442.12 305.85 453.31 308.6 464.49 311.42 480.17 321.08 482.75 339.29 481.26 350.59 480.26 361.88 479.83 373.18 479.97 384.48 480.68 395.77 481.93 407.07 483.63 418.36 485.7 429.66 488.01 440.95 490.44 452.25 492.84 463.55 495.07 474.84 492.08 490.38 475.72 491.58 464.29 488.45 452.86 485.39 441.43 482.58 430.01 480.16 418.58 478.26 407.15 476.97 395.72 476.36 384.3 476.47 372.87 477.29 361.44 478.78 350.01 480.85 338.59 483.41 320.93 482.23 313.39 466.91 311.9 455.66 310.29 444.42 308.67 433.17 307.12 421.92 305.74 410.68 304.6 399.43 303.77 388.19 303.29 376.94 303.2 365.69 303.49 354.45 304.15 343.2 305.15 331.95 306.42 320.71 307.9 309.46" stroke-dasharray="0 0" transform="rotate(137.03703703703704, 400, 400)" opacity="0.75"></path><path d="M313.04 313.95Q323.46 311.41 333.88 309.07 344.29 307.05 354.71 305.44 365.12 304.31 375.54 303.71 385.96 303.68 396.37 304.21 406.79 305.28 417.21 306.84 427.62 308.82 438.04 311.13 448.45 313.66 458.87 316.29 473.54 325.43 476.18 342.48 474.97 353.01 474.2 363.54 473.92 374.08 474.14 384.61 474.85 395.15 476.02 405.68 477.58 416.22 479.46 426.75 481.56 437.29 483.79 447.82 486.03 458.35 488.16 468.89 485.58 483.32 470.41 484.32 459.76 481.42 449.11 478.63 438.46 476.09 427.81 473.91 417.16 472.19 406.51 471.01 395.86 470.43 385.21 470.46 374.56 471.12 363.91 472.36 353.25 474.14 342.6 476.36 326.07 475.1 318.86 460.77 317.39 450.28 315.85 439.8 314.32 429.31 312.88 418.82 311.58 408.34 310.51 397.85 309.71 387.36 309.22 376.88 309.07 366.39 309.26 355.9 309.79 345.41 310.63 334.93 311.73 324.44 313.04 313.95" stroke-dasharray="0 0" transform="rotate(140.46296296296296, 400, 400)" opacity="0.77"></path><path d="M318.21 318.47Q327.86 316.18 337.51 314.13 347.16 312.39 356.82 311.02 366.47 310.09 376.12 309.63 385.77 309.66 395.42 310.17 405.07 311.15 414.73 312.56 424.38 314.34 434.03 316.42 443.68 318.72 453.33 321.16 467 329.71 469.71 345.57 468.75 355.34 468.18 365.12 468.04 374.89 468.32 384.66 469.02 394.44 470.1 404.21 471.53 413.99 473.23 423.76 475.13 433.53 477.16 443.31 479.22 453.08 481.23 462.85 478.99 476.2 465 477.08 455.13 474.42 445.26 471.9 435.38 469.62 425.51 467.67 415.63 466.13 405.76 465.05 395.89 464.49 386.01 464.46 376.14 464.97 366.26 465.99 356.39 467.48 346.52 469.39 331.12 468.02 324.28 454.67 322.86 444.95 321.4 435.22 319.97 425.49 318.63 415.76 317.43 406.03 316.42 396.3 315.66 386.57 315.16 376.84 314.96 367.11 315.06 357.38 315.46 347.65 316.14 337.92 317.07 328.2 318.21 318.47" stroke-dasharray="0 0" transform="rotate(143.88888888888889, 400, 400)" opacity="0.79"></path><path d="M323.41 323.02Q332.31 321.02 341.2 319.25 350.09 317.78 358.98 316.65 367.87 315.9 376.76 315.56 385.66 315.63 394.55 316.13 403.44 317.02 412.33 318.28 421.22 319.87 430.12 321.73 439.01 323.8 447.9 326.02 460.58 333.94 463.31 348.59 462.59 357.61 462.2 366.62 462.18 375.64 462.51 384.65 463.19 393.66 464.19 402.68 465.48 411.69 467.01 420.71 468.71 429.72 470.54 438.73 472.42 447.75 474.29 456.76 461.37 468.24 441.31 465.19 432.21 463.16 423.11 461.44 414.02 460.07 404.92 459.1 395.82 458.56 386.72 458.48 377.63 458.85 368.53 459.66 359.43 460.89 350.33 462.49 336.09 461.01 329.66 448.64 328.3 439.67 326.94 430.7 325.61 421.72 324.37 412.75 323.27 403.78 322.33 394.8 321.6 385.83 321.11 376.86 320.87 367.89 320.89 358.91 321.17 349.94 321.69 340.97 322.45 331.99 323.41 323.02" stroke-dasharray="0 0" transform="rotate(147.3148148148148, 400, 400)" opacity="0.81"></path><path d="M328.67 327.64Q344.94 324.44 361.22 322.31 377.49 321.49 393.76 322.08 410.03 324.01 426.31 327.06 442.58 330.89 458.85 335.06 457.01 351.57 456.27 368.08 456.71 384.59 458.28 401.1 460.8 417.61 463.95 434.13 467.34 450.64 470.58 467.15 453.93 462.64 437.29 458.51 420.64 455.22 404 453.14 387.35 452.51 370.7 453.39 354.06 455.68 337.41 459.14 335 442.7 332.47 426.26 330.12 409.82 328.24 393.39 327.07 376.95 326.74 360.51 327.3 344.08 328.67 327.64" stroke-dasharray="0 0" transform="rotate(150.74074074074073, 400, 400)" opacity="0.82"></path><path d="M333.99 332.34Q348.76 329.7 363.53 328.02 378.31 327.45 393.08 328.04 407.85 329.75 422.62 332.41 437.39 335.77 452.16 339.53 450.8 354.53 450.37 369.52 450.91 384.52 452.37 399.51 454.6 414.51 457.37 429.51 454.36 449.99 433.21 451.86 418.11 449.01 403.01 447.18 387.91 446.55 372.81 447.16 357.71 448.96 342.61 451.8 340.31 436.86 337.99 421.93 335.86 407 334.15 392.07 333.04 377.14 332.62 362.21 332.95 347.28 333.99 332.34" stroke-dasharray="0 0" transform="rotate(154.16666666666669, 400, 400)" opacity="0.84"></path><path d="M339.4 337.15Q352.67 335.05 365.95 333.77 379.23 333.41 392.5 334 405.78 335.49 419.06 337.78 432.34 340.69 445.61 343.99 444.68 357.48 444.51 370.96 445.12 384.45 446.46 397.93 448.41 411.41 450.83 424.9 448.07 443.36 429.09 445.25 415.53 442.82 401.97 441.23 388.41 440.6 374.85 440.98 361.3 442.34 347.74 444.59 345.6 431.16 343.5 417.73 341.6 404.3 340.06 390.87 339.01 377.44 338.53 364.01 338.66 350.58 339.4 337.15" stroke-dasharray="0 0" transform="rotate(157.59259259259258, 400, 400)" opacity="0.86"></path><path d="M344.89 342.09Q356.68 340.48 368.47 339.56 380.26 339.38 392.05 339.95 403.84 341.25 415.63 343.18 427.42 345.64 439.21 348.48 438.65 360.45 438.7 372.43 439.34 384.4 440.55 396.38 442.24 408.35 444.3 420.33 441.79 436.79 424.95 438.68 412.93 436.63 400.9 435.27 388.88 434.66 376.86 434.85 357.85 430.71 349.01 413.67 347.34 401.74 345.98 389.81 345 377.88 344.48 365.95 344.44 354.02 344.89 342.09" stroke-dasharray="0 0" transform="rotate(161.0185185185185, 400, 400)" opacity="0.88"></path><path d="M350.5 347.17Q360.81 346.01 371.12 345.4 381.42 345.37 391.73 345.91 402.04 347.01 412.35 348.61 427.68 357.06 432.91 373.94 433.57 384.41 434.64 394.88 436.08 405.35 437.81 415.82 435.53 430.28 420.81 432.14 410.32 430.46 399.82 429.31 389.32 428.74 378.83 428.77 362.23 424.8 354.52 409.76 353.08 399.33 351.89 388.9 351 378.46 350.45 368.03 350.28 357.6 350.5 347.17" stroke-dasharray="0 0" transform="rotate(164.44444444444443, 400, 400)" opacity="0.89"></path><path d="M356.22 352.4Q365.05 351.64 373.88 351.29 382.71 351.37 391.55 351.87 400.38 352.78 409.21 354.07 422.45 361.13 427.16 375.53 427.79 384.49 428.73 393.46 429.93 402.42 431.35 411.39 418.51 424.08 398.74 423.35 389.76 422.83 380.79 422.75 366.6 419.04 360.03 406.03 358.82 397.09 357.8 388.15 357 379.22 356.46 370.28 356.2 361.34 356.22 352.4" stroke-dasharray="0 0" transform="rotate(167.87037037037038, 400, 400)" opacity="0.91"></path><path d="M362.06 357.8Q376.78 357.22 391.5 357.83 406.22 359.56 420.93 362.27 421.44 377.2 422.82 392.14 424.92 407.07 427.53 422 412.6 419.2 397.68 417.4 382.76 416.77 367.83 417.37 365.55 402.48 363.71 387.59 362.51 372.69 362.06 357.8" stroke-dasharray="0 0" transform="rotate(171.2962962962963, 400, 400)" opacity="0.93"></path><path d="M368.03 363.38Q379.81 363.2 391.59 363.78 403.36 365.09 415.14 367.05 415.76 378.99 416.91 390.93 413.54 407.83 396.66 411.44 384.75 410.84 372.83 411.03 371.07 399.12 369.62 387.21 368.58 375.29 368.03 363.38" stroke-dasharray="0 0" transform="rotate(174.72222222222223, 400, 400)" opacity="0.95"></path><path d="M374.14 369.15Q382.97 369.23 391.81 369.74 405.37 375.79 411 389.86 408.38 402.62 395.69 405.48 381.69 400.46 375.53 387.02 374.7 378.08 374.14 369.15" stroke-dasharray="0 0" transform="rotate(178.14814814814815, 400, 400)" opacity="0.96"></path><path d="M380.38 375.11Q392.17 375.7 403.96 377.02 390.69 390.63 380.38 375.11" stroke-dasharray="0 0" transform="rotate(181.57407407407408, 400, 400)" opacity="0.98"></path></g></svg>